<?xml version="1.0" encoding="UTF-8"?>
<svg id="Layer_1" data-name="Layer 1" xmlns="http://www.w3.org/2000/svg" viewBox="0 0 126 126">
  <path d="m120.95471,120.72083c-29.3079-2.2804-75.41937-6.4942-105.05051-9.04901.0001-.00006-.83145-.07294-.83145-.07294,0,0-.07294-.83167-.07294-.83167-1.52006-17.35717-5.43907-61.98491-6.90472-78.7771,0,0-2.14436-26.27332-2.14436-26.27332l.99591-.09045c2.66443,8.58044,4.56818,17.23022,6.52057,25.87549,5.49545,25.75731,9.02579,52.14118,11.48782,78.36047.00004,0-8.14571-8.14587-8.14571-8.14587,17.24201,1.60006,35.28652,3.75943,52.33844,6.57939,17.4855,2.93879,34.82758,6.31501,51.89755,11.42903-.00003.00012-.09061.99597-.09061.99597h0Z" style="fill: #4d4d4d;"/>
</svg>