<?xml version="1.0" encoding="UTF-8"?>
<svg id="Layer_1" data-name="Layer 1" xmlns="http://www.w3.org/2000/svg" viewBox="0 0 126 126">
  <path d="m120.49792,5.04529c-2.2803,29.30791-6.49415,75.41937-9.04895,105.05051-.00006-.0001-.07306.83145-.07306.83145l-.83154.073c-17.35715,1.52004-61.98494,5.43899-78.7771,6.90466,0,0-26.27332,2.1443-26.27332,2.1443,0,0-.09052-.99585-.09052-.99585,8.58051-2.66443,17.23022-4.56824,25.87549-6.52051,25.75731-5.49543,52.14113-9.0259,78.36041-11.48788,0-.00004-8.14575,8.14571-8.14575,8.14571,1.60004-17.24199,3.75935-35.2865,6.57939-52.33838,2.93876-17.48556,6.31502-34.82767,11.42897-51.89761.00012.00003.99597.09061.99597.09061h0Z" style="fill: #4d4d4d;"/>
</svg>