<?xml version="1.0" encoding="UTF-8"?>
<svg id="Layer_1" data-name="Layer 1" xmlns="http://www.w3.org/2000/svg" viewBox="0 0 126 126">
  <path d="m120.50208,123.59656c-9.86889-33.92278-14.60895-69.16209-18.00869-104.23591.00021-.00005,8.14596,8.1457,8.14596,8.1457-26.22524-2.46152-52.5967-5.99176-78.36041-11.48781-8.64526-1.95238-17.29498-3.85619-25.87549-6.52061,0,0,.09052-.99585.09052-.99585l26.27332,2.14429c16.59245,1.44964,61.59538,5.39774,78.77711,6.90479,0,0,.83154.07287.83154.07287l.073.83154c1.52119,17.36322,5.43972,61.98047,6.90624,78.77697,0,0,2.14277,26.27344,2.14277,26.27344l-.99585.09058h0Z" style="fill: #4d4d4d;"/>
</svg>