<?xml version="1.0" encoding="UTF-8"?>
<svg id="Layer_1" data-name="Layer 1" xmlns="http://www.w3.org/2000/svg" viewBox="0 0 180 99">
  <path d="m8.64642,91.64648c22.31271-22.85707,57.89616-58.40374,80.64718-81.35291-.00003.00013.70639-.71044.70639-.71044l.70642.71057c13.35495,13.43641,47.65539,47.93131,60.56908,60.93091,0,0,20.07807,20.42187,20.07807,20.42187,0,0-.70715.70703-.70715.70703-8.07697-5.42297-15.61383-11.38611-23.18524-17.3147-22.32168-17.87769-43.5446-37.50867-63.82321-57.67666-.00003.00002,12.72409.00002,12.72409.00002-13.32434,13.27934-27.64253,26.86558-41.78257,39.21738-14.51894,12.62023-29.28722,24.85668-45.22584,35.77405-.00008-.0001-.70723-.70713-.70723-.70713h0Z" style="fill: #4d4d4d;"/>
</svg>