<?xml version="1.0" encoding="UTF-8"?>
<svg id="Layer_1" data-name="Layer 1" xmlns="http://www.w3.org/2000/svg" viewBox="0 0 126 126">
  <path d="m8.50208,123.50598c2.2803-29.30791,6.49415-75.41937,9.04895-105.05051.00006.0001.07306-.83145.07306-.83145,0,0,.83154-.07288.83154-.07288,17.35715-1.52008,61.98494-5.43914,78.7771-6.90478,0,0,26.27332-2.1443,26.27332-2.1443l.09052.99585c-8.58051,2.66443-17.23022,4.56824-25.87549,6.52063-25.7573,5.49535-52.14115,9.0258-78.36041,11.48776,0,.00004,8.14575-8.14571,8.14575-8.14571-1.60004,17.24203-3.75936,35.28658-6.57939,52.3385-2.93875,17.48535-6.315,34.82759-11.42897,51.89749-.00012-.00003-.99597-.09061-.99597-.09061h0Z" style="fill: #4d4d4d;"/>
</svg>