<?xml version="1.0" encoding="UTF-8"?>
<svg id="Layer_1" data-name="Layer 1" xmlns="http://www.w3.org/2000/svg" viewBox="0 0 90 171">
  <path d="m4.14648,166.14648c21.90021-31.46848,48.08948-59.80706,74.99116-87.00868.00017.00013.00017,12.72426.00017,12.72426-20.17347-20.28259-39.79404-41.49648-57.67663-63.82325C15.53259,20.46741,9.56946,12.93054,4.14648,4.85352c0,0,.70703-.70703.70703-.70703,0,0,20.42188,20.078,20.42188,20.078,12.84524,12.76202,47.636,47.3519,60.93091,60.5691,0,0,.71057.70642.71057.70642,0,0-.71057.70642-.71057.70642-13.43992,13.35922-47.92776,47.65323-60.92969,60.57018,0,0-20.42309,20.07691-20.42309,20.07691l-.70703-.70703h0Z" style="fill: #4d4d4d;"/>
</svg>