<?xml version="1.0" encoding="UTF-8"?>
<svg id="Layer_1" data-name="Layer 1" xmlns="http://www.w3.org/2000/svg" viewBox="0 0 90 171">
  <path d="m85.11591,166.82007c-19.11146-22.3362-48.73746-57.92168-67.88335-80.68057.00011.00003-.53633-.6395-.53633-.6395l.53644-.63953c11.19847-13.34819,39.98394-47.67606,50.82147-60.58617,0,0,17.06176-20.09437,17.06176-20.09437,0,0,.76819.64014.76819.64014-4.18329,7.95142-8.95337,15.41382-13.68597,22.90747-14.32734,22.09904-30.48714,43.25153-47.28604,63.53232.00003.00003.00003-11.51975.00003-11.51975,11.06049,13.32337,22.29311,27.60953,32.35648,41.66116,10.28618,14.44213,20.16148,29.09209,28.61562,44.77859-.00011.00007-.7683.6402-.7683.6402h0Z" style="fill: #4d4d4d;"/>
</svg>