<?xml version="1.0" encoding="UTF-8"?>
<svg id="Layer_1" data-name="Layer 1" xmlns="http://www.w3.org/2000/svg" viewBox="0 0 90 171">
  <path d="m4.14642,166.14648c21.90025-31.46848,48.08954-59.80701,74.99116-87.00868.00017.00013.00023,12.72426.00023,12.72426-20.17351-20.28251-39.79394-41.49659-57.67669-63.82325C15.53253,20.46741,9.56946,12.93054,4.14642,4.85352c0,0,.70715-.70703.70715-.70703l20.42188,20.078c12.84513,12.76207,47.63595,47.35194,60.93085,60.5691,0,0,.7105.70642.7105.70642l-.71051.70642c-13.43993,13.35924-47.92777,47.65325-60.92975,60.57018,0,0-20.42297,20.07691-20.42297,20.07691l-.70715-.70703h0Z" style="fill: #4d4d4d;"/>
</svg>