<?xml version="1.0" encoding="UTF-8"?>
<svg id="Layer_1" data-name="Layer 1" xmlns="http://www.w3.org/2000/svg" viewBox="0 0 180 99">
  <path d="m9.35358,8.64648c31.46844,21.90025,59.80701,48.08946,87.00862,74.99116-.00013.00017-12.72426.00017-12.72426.00017,20.28258-20.17355,41.49653-39.79401,63.82325-57.67663,7.5714-5.9286,15.10826-11.89173,23.18523-17.31471,0,0,.70715.70703.70715.70703,0,0-20.07806,20.42188-20.07806,20.42188-12.76197,12.84527-47.35189,47.63602-60.5691,60.93091,0,0-.70642.71057-.70642.71057l-.70642-.71057c-13.35923-13.4399-47.65329-47.92773-60.57018-60.92969,0,0-20.07697-20.42309-20.07697-20.42309,0,0,.70715-.70703.70715-.70703h0Z" style="fill: #4d4d4d;"/>
</svg>