<?xml version="1.0" encoding="UTF-8"?>
<svg id="Layer_1" data-name="Layer 1" xmlns="http://www.w3.org/2000/svg" viewBox="0 0 1800 1008">
  <g>
    <g style="opacity: .82;">
      <path d="m632.25067,189.02138c18.62006-9.61127,37.60095-18.57906,57.10828-26.51051,19.89789-6.77232,40.09167-12.75597,60.59344-17.51735,81.98808-19.60392,168.34678-17.56341,250.39792.64597,20.53079,4.56752,40.82864,10.17793,60.79178,16.80108,19.59143,7.73669,38.69836,16.57565,57.1106,26.58081-39.41246-13.7127-79.08179-26.0231-119.6378-35.5734-40.51668-9.11943-81.99678-13.71478-123.50081-14.37385-41.30853-.43637-83.12797,4.22049-123.34423,13.71031-40.50995,9.83587-79.76077,23.49961-119.51917,36.23694h0Z" style="fill: #248da3;"/>
    </g>
    <g style="opacity: .82;">
      <path d="m632.25067,837.02405c14.69216,5.47279,29.50809,10.59794,44.49195,15.17611,24.89429,7.36246,49.47415,15.84619,74.93192,21.172,60.73294,13.58622,123.87911,16.99134,185.73751,10.19243,41.28569-4.46292,82.03924-13.68845,121.37044-26.97496-.00002-.00009,3.76744-1.01858,3.76744-1.01858l3.74194-1.10101c12.40476-3.64074,25.04044-7.68306,37.2038-12.0625,4.95098-1.69794,9.82794-3.58514,14.75701-5.38348-15.9679,8.95615-32.67753,17.03733-49.58947,24.1246-1.86515.79683-5.42741,2.29709-7.30689,3.01545-19.93823,6.76058-40.24017,12.44454-60.79022,17.01815-61.59055,13.84554-125.61133,17.13254-188.35572,10.37333-41.86015-4.64522-83.16897-13.91456-123.07671-27.35353-19.53689-7.84073-38.56002-16.84658-56.88301-27.178h0Z" style="fill: #82ff89;"/>
    </g>
    <g style="opacity: .82;">
      <path d="m497.25009,634.52325c104.82866-40.84368,268.46893-89.61703,376.77744-125.30915,109.23704-34.27482,269.66119-89.52694,379.2244-117.69173-104.86782,40.73183-268.44872,89.67368-376.77614,125.30894-109.25538,34.21775-269.62803,89.64121-379.2257,117.69194h0Z" style="fill: #f2d418;"/>
    </g>
    <g style="opacity: .82;">
      <path d="m632.25067,837.02405c13.64762,1.37958,28.56354,2.50394,42.25282,3.26805,49.13852,1.8332,98.51402,3.12681,147.46286-2.47785,27.38547-2.88729,56.2442-7.72237,83.08636-13.98398,11.41727-2.39691,24.42898-6.16109,35.74294-9.08889,62.37186-18.07831,122.58401-44.29081,177.77709-78.54114,27.10511-16.35846,52.3272-35.49655,77.52422-54.58628,13.66849-10.31824,28.26233-21.89289,41.20618-33.10891,5.4955-4.58467,10.73956-9.37356,15.95033-13.98197-5.73841,6.34877-12.205,13.41318-18.05933,19.47171-5.32471,5.37575-13.36637,13.47953-18.93274,18.67911-4.13637,4.00391-11.33102,10.47247-15.67926,14.42798-76.19517,63.8235-167.15444,109.91689-262.74144,136.69818-5.13505,1.34325-15.47121,4.11169-20.60513,5.45915-6.0323,1.50638-14.66604,3.25604-20.79086,4.69921-7.1575,1.76798-23.97901,4.64168-31.38756,6.07334-13.82038,2.17688-28.2802,4.31013-42.23557,5.7366.00006.0001-5.2948.60032-5.2948.60032,0,0-2.64746.29938-2.64746.29938-3.00555.25735-10.42764.82313-13.2792,1.0634-28.33146,2.22805-56.78922,2.71431-85.18797,1.67049l-5.31488-.41742s-2.65588-.21503-2.65588-.21503c0,0-2.65179-.28113-2.65179-.28113-24.40168-2.37186-49.58964-6.22059-73.53894-11.46429h0Z" style="fill: #ffb5b5;"/>
    </g>
    <g style="opacity: .82;">
      <path d="m1253.25317,634.52325c-108.99391-27.88512-270.40528-83.59257-379.22574-117.69188-108.74934-35.79227-271.32189-84.36049-376.77624-125.30856,108.96058,27.99884,270.42201,83.53475,379.2247,117.69141,108.73093,35.84929,271.36146,84.24817,376.77728,125.30903h0Z" style="fill: #e86f6f;"/>
    </g>
    <g style="opacity: .82;">
      <path d="m632.25067,189.02138c72.4415,13.55703,142.12197,39.30725,208.05692,72.04098,62.13404,30.57254,122.03191,67.86865,176.80066,110.22841,36.8344,28.38156,72.89862,60.41721,105.56311,93.58128,50.55231,50.91852,95.31346,107.09992,130.58089,169.65188-47.92899-65.60079-99.40762-129.01565-157.93516-185.45818-58.62125-55.99176-124.13053-105.4308-194.1425-146.27954-55.94601-32.56594-115.58966-60.28233-176.62601-81.74609-30.24083-11.91664-61.20684-22.52065-92.29791-32.01875h0Z" style="fill: #d45b5b;"/>
    </g>
    <g style="opacity: .82;">
      <path d="m1118.25269,837.02405c-72.44161-13.55695-142.12196-39.3073-208.05698-72.04094-62.13399-30.57265-122.03196-67.86863-176.80066-110.22844-36.83446-28.38153-72.89858-60.41723-105.56311-93.58128-50.55236-50.91856-95.31333-107.09988-130.58092-169.65185,47.92902,65.60083,99.40772,129.01548,157.93512,185.45821,58.62141,55.99162,124.13056,105.43082,194.14262,146.27948,55.94597,32.56604,115.58958,60.2823,176.62595,81.7461,30.24085,11.91665,61.20686,22.52071,92.29797,32.01872h0Z" style="fill: #3fb045;"/>
    </g>
    <g style="opacity: .82;">
      <path d="m632.25067,189.02138c74.17571,87.55784,175.74135,229.04861,246.20145,321.60108,69.42886,93.90014,176.05594,230.21884,239.8,326.40045-74.08273-87.63124-175.78838-229.01103-246.20087-321.59996-69.38088-93.9361-176.15311-230.15003-239.80058-326.40157h0Z" style="fill: #2e8f31;"/>
    </g>
    <g style="opacity: .82;">
      <path d="m497.25009,634.52325c73.22489,59.8379,158.15708,106.80554,250.30516,129.27621,11.33047,2.69944,23.21982,5.12288,34.69783,7.22469,1.6615.29335,13.89392,2.15762,15.91697,2.49725,5.82942.85794,13.28825,1.65431,19.18234,2.41396,4.05214.37468,14.98497,1.36124,19.25765,1.72212,4.46711.26417,15.03918.78507,19.30787,1.02341,3.94772.05219,15.20595.28183,19.33381.34294,100.8505-.6809,201.83577-29.00858,288.00999-81.50165,4.35062-2.75634,9.45392-5.62921,13.88015-8.20209,4.73681-2.91391,9.58062-6.00357,13.69416-8.54169,4.10946-2.55592,6.92658-4.64481,10.7622-7.15278,6.62243-4.30033,14.78304-10.36169,21.17387-14.89324-.00011.00004,10.26917-7.90474,10.26917-7.90474,0,0,5.15515-3.94269,5.15515-3.94269,4.80911-3.91366,10.59855-8.72608,15.05691-12.36174-24.40664,24.59477-51.23379,47.03154-80.24771,66.43132-6.06161,4.13394-15.99882,9.5811-22.47584,13.38076-2.57531,1.43703-12.16094,6.57009-14.37295,7.79207-1.62113.8375-7.01116,3.51681-8.76073,4.4131-95.50073,47.56052-204.61783,68.79984-310.8942,57.34965-5.92514-.77718-13.56151-1.56641-19.46653-2.44955-.00003-.00007-12.92282-2.02619-12.92282-2.02619,0,0-3.23035-.50842-3.23035-.50842-11.63375-2.13059-23.71324-4.59013-35.21029-7.33216-92.76542-22.85143-181.55207-68.1558-248.42182-137.05053h0Z" style="fill: #f09a9a;"/>
    </g>
    <g style="opacity: .82;">
      <path d="m1118.25269,189.02138c-63.28641,95.72484-170.67905,232.84533-239.80062,326.40172-70.70405,92.94378-171.71436,233.47497-246.20045,321.60009,63.38286-95.65607,170.62983-232.87993,239.79971-326.40075,70.75205-92.90775,171.62116-233.54903,246.20137-321.60106h0Z" style="fill: #a3efff;"/>
    </g>
    <g style="opacity: .82;">
      <path d="m497.25009,391.52222c66.87533-68.89645,155.65289-114.19777,248.42197-137.05049,11.49708-2.73894,23.5625-5.20198,35.21017-7.33207,1.76377-.24209,14.04331-2.23073,16.15329-2.53463,5.91617-.86969,13.48422-1.68095,19.46633-2.44961,106.27796-11.44998,215.39184,9.78879,310.89421,57.34945-.00008.00017,5.84038,2.94207,5.84038,2.94207,0,0,2.92017,1.47113,2.92017,1.47113,4.01831,2.14696,10.74017,5.84019,14.37353,7.79219,38.07,21.03748,72.1555,49.3042,102.72316,79.81179-3.71955-3.10067-11.56083-9.45764-15.05669-12.36141-2.93313-2.27038-12.29659-9.40764-15.42445-11.84755-6.41723-4.53595-14.7415-10.7237-21.17434-14.89323-3.47999-2.26895-7.35546-5.04992-10.76213-7.15286-2.66322-1.61471-11.44045-7.17175-13.69423-8.54169-4.34703-2.56968-9.66748-5.48357-13.87974-8.20159-86.17372-52.49341-187.15982-80.82115-288.00998-81.5025-4.0396.09658-15.37075.25638-19.33364.34344-4.33792.19727-14.90279.80688-19.30841,1.02328-4.04407.42094-15.2312,1.27014-19.25713,1.72227-5.8368.76606-13.36489,1.54433-19.18231,2.41382-.00003.00007-12.73398,1.99682-12.73398,1.99682l-3.18323.50037c-11.46367,2.10064-23.36779,4.52434-34.69735,7.22553-92.15315,22.47148-177.07358,69.43554-250.30561,129.2755h0Z" style="fill: #d9bc09;"/>
    </g>
    <g style="opacity: .82;">
      <path d="m1118.25269,189.02138c-13.64768-1.37952-28.56357-2.50394-42.25288-3.26799-49.13853-1.83332-98.51404-3.12676-147.46286,2.47782-27.38551,2.88732-56.24418,7.72238-83.08636,13.98398-11.41723,2.39695-24.42895,6.16104-35.74288,9.08888-62.37193,18.07833-122.58405,44.29092-177.77722,78.54117-27.10503,16.3584-52.32714,35.49665-77.52416,54.58625-13.66846,10.31826-28.26229,21.8929-41.20612,33.10894-5.49557,4.58465-10.73963,9.37353-15.95042,13.98197,5.73846-6.34872,12.20496-13.41327,18.05943-19.47171,5.32465-5.37581,13.36634-13.47959,18.93274-18.67914,4.13627-4.00396,11.331-10.47244,15.6792-14.42795,76.19516-63.82345,167.15441-109.91695,262.74144-136.69818,5.13505-1.34327,15.47121-4.11172,20.60513-5.45916,6.03227-1.50633,14.66606-3.256,20.79086-4.69918,7.15755-1.76802,23.97898-4.64167,31.38756-6.07337,13.82044-2.17685,28.28016-4.31012,42.23557-5.73659-.00006-.0001,5.2948-.60035,5.2948-.60035,0,0,2.64746-.29936,2.64746-.29936,3.00555-.25738,10.42764-.82314,13.2792-1.06341,28.33146-2.22803,56.78922-2.71427,85.18803-1.67047,0,0,5.31482.4174,5.31482.4174l2.65588.21503s2.65173.28114,2.65173.28114c24.40171,2.37183,49.58973,6.22066,73.53906,11.46426h0Z" style="fill: #4aa8ba;"/>
    </g>
    <g style="opacity: .82;">
      <path d="m632.25067,189.02138c23.95927-5.24098,49.1239-9.09603,73.53896-11.46413,2.80334-.35235,7.73246-.66772,10.62243-.91374,28.39885-1.04377,56.85661-.55753,85.18815,1.67054,6.35455.49115,15.01686,1.161,21.22143,1.96307,13.98489,1.43943,28.40194,3.55706,42.23561,5.7368,7.54387,1.43603,24.20853,4.32231,31.38752,6.07334,6.17635,1.48668,14.73109,3.19479,20.79091,4.69913,5.13653,1.37769,15.46982,4.08605,20.60473,5.45956,95.58823,26.78108,186.54526,72.87369,262.74226,136.69711,3.73784,3.46486,11.91135,10.7032,15.67872,14.42843,5.33316,5.01955,13.75663,13.39994,18.93278,18.67925,5.94178,6.12097,12.35708,13.16682,18.05914,19.47161-4.92983-4.46083-11.04067-9.80547-15.94989-13.98172-12.95728-11.22106-27.51529-22.78214-41.20615-33.10955-25.19809-19.08944-50.41832-38.22713-77.52469-54.58571-55.19007-34.2489-115.40696-60.46451-177.77705-78.54097-11.32102-2.92767-24.31751-6.68829-35.7428-9.08918-26.84603-6.26062-55.69377-11.09536-83.08636-13.98402-48.9494-5.60421-98.32243-4.31106-147.46296-2.47793-13.62774.77608-28.66449,1.87748-42.25274,3.26811h0Z" style="fill: #c2a700;"/>
    </g>
    <g style="opacity: .82;">
      <path d="m1118.25269,837.02405c-23.95929,5.24101-49.12399,9.09607-73.53909,11.46416-2.8033.35233-7.73238.66771-10.62231.91374-28.39891,1.0438-56.85667.55753-85.18822-1.67056-6.35592-.49127-15.0154-1.16087-21.22143-1.96304-13.98492-1.43946-28.40189-3.55706-42.23561-5.73681-7.5439-1.436-24.20848-4.32232-31.38752-6.0733-6.17634-1.48669-14.73113-3.19479-20.79091-4.69916-5.13651-1.37773-15.4698-4.08608-20.60473-5.45955-95.58827-26.78115-186.54524-72.87367-262.74226-136.69711-3.73781-3.46488-11.91141-10.70312-15.67866-14.42846-5.33316-5.01952-13.7567-13.39986-18.93278-18.67922-5.94185-6.12091-12.35708-13.16688-18.05923-19.47161,4.92988,4.46082,11.04071,9.80546,15.94998,13.98172,12.95725,11.22106,27.51523,22.78214,41.20609,33.10952,25.19803,19.08942,50.41834,38.22713,77.52463,54.58574,55.19014,34.24885,115.40698,60.46457,177.77718,78.54094,11.321,2.92767,24.31747,6.68831,35.74274,9.0892,26.84603,6.26062,55.69373,11.09537,83.08636,13.98402,48.94937,5.60429,98.32242,4.31098,147.46297,2.47796,13.62776-.77612,28.6645-1.8775,42.2528-3.26817h0Z" style="fill: #59de5f;"/>
    </g>
    <g style="opacity: .82;">
      <path d="m1118.25269,189.02138c-31.09066,9.49779-62.05817,20.10272-92.29797,32.01874-61.02581,21.45907-120.68522,49.18136-176.62605,81.74597-70.00794,40.84586-135.52612,90.29157-194.14192,146.28019-58.5288,56.44408-110.00233,119.85184-157.93718,185.45655,35.28133-62.56647,80.01812-118.71848,130.58322-169.65019,32.68535-33.18088,68.71537-65.1896,105.56241-93.58179,54.76579-42.35775,114.6702-79.65872,176.80024-110.22939,65.93251-32.73115,135.61899-58.4849,208.05726-72.04007h0Z" style="fill: #7cd5e6;"/>
    </g>
    <g style="opacity: .82;">
      <path d="m632.25067,837.02405c31.09066-9.49774,62.05813-20.10271,92.2979-32.01871,61.0258-21.45903,120.68526-49.18139,176.62612-81.74598,70.00789-40.84585,135.52606-90.2915,194.1418-146.28012,58.5288-56.44405,110.00244-119.85185,157.93721-185.45658-35.28119,62.56638-80.01815,118.7186-130.58318,169.65016-32.68528,33.18094-68.71538,65.1896-105.56241,93.58179-54.76579,42.35779-114.67021,79.65874-176.80024,110.22942-65.93246,32.73115-135.61906,58.48491-208.0572,72.04003h0Z" style="fill: #ffe333;"/>
    </g>
    <g>
      <circle cx="497.25008" cy="391.52223" r="20.25008" style="fill: #4d4d4d; stroke: #fff; stroke-miterlimit: 10; stroke-width: 11px;"/>
      <circle cx="632.25065" cy="189.02138" r="20.25008" style="fill: #1a1a1a; stroke: #fff; stroke-miterlimit: 10; stroke-width: 11px;"/>
      <circle cx="632.25065" cy="837.02408" r="20.25008" style="fill: #b3b3b3; stroke: #fff; stroke-miterlimit: 10; stroke-width: 11px;"/>
      <circle cx="497.25008" cy="634.52324" r="20.25008" style="fill: gray; stroke: #fff; stroke-miterlimit: 10; stroke-width: 11px;"/>
    </g>
    <g>
      <circle cx="1253.25323" cy="391.52223" r="20.25008" style="fill: #e3c400; stroke: #fff; stroke-miterlimit: 10; stroke-width: 11px;"/>
      <circle cx="1118.25267" cy="189.02138" r="20.25008" style="fill: #0098b5; stroke: #fff; stroke-miterlimit: 10; stroke-width: 11px;"/>
      <circle cx="1118.25267" cy="837.02408" r="20.25008" style="fill: #55cf5b; stroke: #fff; stroke-miterlimit: 10; stroke-width: 11px;"/>
      <circle cx="1253.25323" cy="634.52324" r="20.25008" style="fill: #eb7171; stroke: #fff; stroke-miterlimit: 10; stroke-width: 11px;"/>
    </g>
  </g>
  <g>
    <g id="spatial-text">
      <path d="m482.97607,201.73438c-1.22412-.57617-2.17822-1.35645-2.8623-2.34082-.68359-.9834-1.07422-2.0752-1.16992-3.27539h1.69238c.19141,1.32031.80957,2.49609,1.854,3.52734,1.04395,1.03223,2.6333,1.54883,4.76953,1.54883,1.24805,0,2.33398-.22852,3.2583-.68457.92334-.45508,1.6377-1.08008,2.14209-1.87207.50391-.79199.75586-1.66797.75586-2.62793,0-1.22363-.29443-2.19629-.88184-2.91602-.58838-.71973-1.32031-1.25977-2.19629-1.62012-.87646-.35938-2.05811-.74316-3.5459-1.15137-1.63232-.43262-2.94629-.86426-3.94189-1.2959-.99609-.43262-1.83594-1.09863-2.52002-1.99805-.68408-.90039-1.02588-2.12988-1.02588-3.69043,0-1.2002.31738-2.29785.95361-3.29395.63574-.99609,1.54199-1.78223,2.71826-2.3584,1.17578-.5752,2.53174-.86328,4.06787-.86328,2.23193,0,4.03223.55176,5.3999,1.65527,1.36816,1.10449,2.18359,2.46094,2.44824,4.06836h-1.72803c-.14404-.64844-.4624-1.30762-.9541-1.97949-.49219-.67188-1.18799-1.23047-2.08789-1.6748-.8999-.44336-1.97461-.66602-3.22217-.66602-1.68018,0-3.0957.46289-4.24805,1.38672-1.15186.92383-1.72803,2.1543-1.72803,3.68945,0,1.22461.2998,2.20215.90039,2.93457.59961.73242,1.3374,1.28418,2.21387,1.65527.87549.37305,2.05762.75098,3.5459,1.13477,1.65625.45605,2.97021.89355,3.94189,1.31348.97217.41992,1.80029,1.08008,2.48389,1.98047.68408.89941,1.02637,2.11816,1.02637,3.65332,0,1.12891-.30029,2.19629-.8999,3.2041-.60059,1.00781-1.48242,1.83105-2.646,2.46582-1.16455.63672-2.57422.9541-4.23047.9541-1.63232,0-3.05957-.28809-4.28369-.86328Z" style="fill: #333;"/>
      <path d="m504.52148,184.05762c1.45166-1.00781,3.20947-1.51172,5.27393-1.51172,1.82373,0,3.44971.4082,4.87793,1.22363,1.42773.81641,2.54346,1.98047,3.34814,3.49219.80371,1.5127,1.20605,3.27637,1.20605,5.29199,0,2.0166-.40234,3.78613-1.20605,5.31055-.80469,1.52441-1.92041,2.69922-3.34814,3.52734-1.42822.82812-3.0542,1.24219-4.87793,1.24219-2.04004,0-3.78613-.50977-5.23828-1.53027-1.45215-1.01953-2.46582-2.30957-3.04199-3.86914v14.32715h-1.61963v-28.76367h1.61963v5.14844c.55225-1.58398,1.55371-2.87988,3.00635-3.88867Zm12.04199,3.88867c-.67236-1.2959-1.61426-2.28613-2.82617-2.9707-1.21191-.68359-2.60986-1.02539-4.19385-1.02539-1.51221,0-2.87988.35449-4.104,1.06152-1.22412.70801-2.18408,1.7168-2.87988,3.02441-.69678,1.30859-1.04443,2.81445-1.04443,4.51758,0,1.72852.34766,3.24609,1.04443,4.55469.6958,1.30762,1.65576,2.31641,2.87988,3.02344,1.22412.70801,2.5918,1.0625,4.104,1.0625,1.58398,0,2.98193-.34766,4.19385-1.04395s2.15381-1.69238,2.82617-2.98828c.67139-1.2959,1.00781-2.83203,1.00781-4.6084,0-1.77539-.33643-3.31152-1.00781-4.60742Z" style="fill: #333;"/>
      <path d="m524.3208,187.26172c.80371-1.51172,1.91992-2.67578,3.34814-3.49219,1.42773-.81543,3.05371-1.22363,4.87793-1.22363,2.06396,0,3.81592.50391,5.25586,1.51172,1.43994,1.00879,2.44824,2.29297,3.02393,3.85254v-5.1123h1.62012v19.54785h-1.62012v-5.14746c-.57568,1.58398-1.58984,2.88574-3.04199,3.90527-1.45215,1.02051-3.19824,1.53027-5.23779,1.53027-1.82422,0-3.4502-.41406-4.87793-1.24219-1.42822-.82812-2.54443-2.00293-3.34814-3.52734-.8042-1.52441-1.20605-3.29395-1.20605-5.31055,0-2.01562.40186-3.7793,1.20605-5.29199Zm15.44434.77441c-.7085-1.30762-1.67432-2.31641-2.89844-3.02441-1.22363-.70703-2.5918-1.06152-4.104-1.06152-1.58398,0-2.97607.3418-4.17578,1.02539-1.2002.68457-2.13623,1.6748-2.80811,2.9707s-1.00781,2.83203-1.00781,4.60742c0,1.77637.33594,3.3125,1.00781,4.6084s1.61377,2.29199,2.82617,2.98828c1.21143.69629,2.59766,1.04395,4.15771,1.04395,1.51221,0,2.88574-.35449,4.12207-1.0625,1.23584-.70703,2.20166-1.71582,2.89795-3.02344.6958-1.30859,1.04395-2.82617,1.04395-4.55469,0-1.70312-.354-3.20898-1.06152-4.51758Z" style="fill: #333;"/>
      <path d="m550.76221,184.20215v12.92383c0,1.44043.26416,2.42969.79199,2.96973s1.46387.81055,2.80811.81055h2.19629v1.43945h-2.44824c-1.7041,0-2.95801-.40137-3.76172-1.20605-.80469-.80371-1.20605-2.1416-1.20605-4.01367v-12.92383h-2.95215v-1.4043h2.95215v-4.96777h1.61963v4.96777h5.79639v1.4043h-5.79639Z" style="fill: #333;"/>
      <path d="m560.69824,178.06348c-.26465-.25195-.396-.59375-.396-1.02539,0-.4082.13135-.74414.396-1.00781.26367-.26367.58789-.39648.97168-.39648s.70801.13281.97217.39648c.26367.26367.396.59961.396,1.00781,0,.43164-.13232.77344-.396,1.02539-.26416.25293-.58838.37891-.97217.37891s-.70801-.12598-.97168-.37891Zm1.76367,4.73438v19.54785h-1.61963v-19.54785h1.61963Z" style="fill: #333;"/>
      <path d="m568.59961,187.26172c.80371-1.51172,1.91992-2.67578,3.34814-3.49219,1.42773-.81543,3.05371-1.22363,4.87793-1.22363,2.06396,0,3.81592.50391,5.25586,1.51172,1.43994,1.00879,2.44824,2.29297,3.02393,3.85254v-5.1123h1.62012v19.54785h-1.62012v-5.14746c-.57568,1.58398-1.58984,2.88574-3.04199,3.90527-1.45215,1.02051-3.19824,1.53027-5.23779,1.53027-1.82422,0-3.4502-.41406-4.87793-1.24219-1.42822-.82812-2.54443-2.00293-3.34814-3.52734-.8042-1.52441-1.20605-3.29395-1.20605-5.31055,0-2.01562.40186-3.7793,1.20605-5.29199Zm15.44434.77441c-.7085-1.30762-1.67432-2.31641-2.89844-3.02441-1.22363-.70703-2.5918-1.06152-4.104-1.06152-1.58398,0-2.97607.3418-4.17578,1.02539-1.2002.68457-2.13623,1.6748-2.80811,2.9707s-1.00781,2.83203-1.00781,4.60742c0,1.77637.33594,3.3125,1.00781,4.6084s1.61377,2.29199,2.82617,2.98828c1.21143.69629,2.59766,1.04395,4.15771,1.04395,1.51221,0,2.88574-.35449,4.12207-1.0625,1.23584-.70703,2.20166-1.71582,2.89795-3.02344.6958-1.30859,1.04395-2.82617,1.04395-4.55469,0-1.70312-.354-3.20898-1.06152-4.51758Z" style="fill: #333;"/>
      <path d="m594.24902,175.70605v26.63965h-1.61963v-26.63965h1.61963Z" style="fill: #333;"/>
    </g>
    <g id="transparency-text">
      <path d="m1304.83594,379.72803v1.36816h-7.19922v23.90381h-1.62109v-23.90381h-7.19922v-1.36816h16.01953Z" style="fill: #333;"/>
      <path d="m1312.86328,386.18994c1.22461-.75586,2.78418-1.13379,4.68066-1.13379v1.69189h-.54004c-1.91992,0-3.51562.5459-4.78809,1.63818s-1.9082,2.87402-1.9082,5.3457v11.26807h-1.62012v-19.54785h1.62012v4.03174c.47949-1.43994,1.33203-2.53809,2.55566-3.29395Z" style="fill: #333;"/>
      <path d="m1321.48535,389.91602c.80371-1.51221,1.91992-2.67578,3.34863-3.49219,1.42773-.81543,3.05273-1.22363,4.87695-1.22363,2.06445,0,3.81641.50391,5.25586,1.51172,1.44043,1.0083,2.44922,2.29248,3.02441,3.85205v-5.11182h1.62012v19.54785h-1.62012v-5.14795c-.5752,1.58398-1.58984,2.88623-3.04199,3.90576-1.45215,1.02051-3.19824,1.53027-5.23828,1.53027-1.82422,0-3.44922-.41406-4.87695-1.24219-1.42871-.82812-2.54492-2.00342-3.34863-3.52783-.80371-1.52393-1.20605-3.29395-1.20605-5.31006s.40234-3.77979,1.20605-5.29199Zm15.44434.77393c-.70898-1.30762-1.67383-2.31592-2.89844-3.02393-1.22363-.70752-2.5918-1.06201-4.10352-1.06201-1.58398,0-2.97656.3418-4.17578,1.02588-1.20117.68408-2.13672,1.67432-2.80859,2.97021s-1.00781,2.83203-1.00781,4.60791c0,1.77637.33594,3.31201,1.00781,4.60791s1.61328,2.29248,2.82617,2.98828c1.21094.69629,2.59766,1.04395,4.1582,1.04395,1.51172,0,2.88477-.354,4.12109-1.06201,1.23633-.70752,2.20215-1.71582,2.89844-3.02393.69531-1.30811,1.04395-2.82617,1.04395-4.5542,0-1.70361-.35449-3.20947-1.06152-4.51807Z" style="fill: #333;"/>
      <path d="m1360.02344,387.19824c1.46289,1.42773,2.19531,3.5459,2.19531,6.35352v11.44824h-1.58398v-11.33984c0-2.32764-.58789-4.10986-1.76367-5.34619-1.17578-1.23584-2.77148-1.854-4.78809-1.854-2.1123,0-3.79785.67236-5.05762,2.01611-1.25977,1.34424-1.89062,3.33594-1.89062,5.97607v10.54785h-1.61914v-19.54785h1.61914v4.13965c.55273-1.46338,1.4707-2.58545,2.75391-3.36572,1.28418-.77979,2.76562-1.16992,4.44629-1.16992,2.32715,0,4.22363.71436,5.68848,2.14209Z" style="fill: #333;"/>
      <path d="m1369.11328,403.84814c-1.38086-.95996-2.1543-2.32764-2.32227-4.104h1.65625c.11914,1.27246.70117,2.28027,1.74609,3.02393,1.04297.74414,2.46484,1.11572,4.26562,1.11572,1.48828,0,2.66992-.37793,3.5459-1.13379s1.31348-1.68604,1.31348-2.79004c0-.76758-.2334-1.39795-.70117-1.89014-.46875-.49121-1.05078-.86963-1.74609-1.13379-.69727-.26367-1.64453-.55176-2.84375-.86426-1.44043-.3833-2.60547-.76123-3.49219-1.13379-.88867-.37158-1.64453-.92969-2.26855-1.67383-.62402-.74365-.93652-1.73975-.93652-2.98828,0-.91162.27637-1.75781.82812-2.53809.55273-.7793,1.32031-1.39746,2.30469-1.854.98438-.45557,2.09961-.68359,3.34766-.68359,2.04004,0,3.68945.50977,4.9502,1.52979,1.25977,1.02051,1.93848,2.43018,2.03418,4.22998h-1.62012c-.07227-1.2959-.57617-2.35156-1.5127-3.16797-.93555-.81543-2.23145-1.22412-3.88672-1.22412-1.39258,0-2.54492.36035-3.45703,1.08008-.91211.72021-1.36719,1.59619-1.36719,2.62793,0,.9126.25781,1.65039.77344,2.21436s1.15234.99609,1.9082,1.2959c.75586.30029,1.75781.61816,3.00586.9541,1.36816.35986,2.46582.71436,3.29395,1.06152.82812.34863,1.53027.85254,2.10645,1.51221.57617.66064.86328,1.54248.86328,2.646,0,1.00781-.27539,1.92041-.82812,2.73584-.55176.81641-1.32031,1.45264-2.30371,1.9082-.98438.45557-2.08789.68408-3.31152.68408-2.18457,0-3.9668-.47998-5.3457-1.43994Z" style="fill: #333;"/>
      <path d="m1390.46094,386.71191c1.45117-1.00781,3.20898-1.51172,5.27344-1.51172,1.82422,0,3.44922.4082,4.87793,1.22363,1.42773.81641,2.54395,1.97998,3.34863,3.49219.80273,1.51221,1.20508,3.27588,1.20508,5.29199s-.40234,3.78613-1.20508,5.31006c-.80469,1.52441-1.9209,2.69971-3.34863,3.52783-1.42871.82812-3.05371,1.24219-4.87793,1.24219-2.04004,0-3.78613-.50977-5.23828-1.53027-1.45215-1.01953-2.46582-2.30957-3.04199-3.86963v14.32764h-1.62012v-28.76367h1.62012v5.14795c.55176-1.58398,1.55371-2.87988,3.00684-3.88818Zm12.04102,3.88818c-.67188-1.2959-1.61328-2.28613-2.82617-2.97021-1.21094-.68408-2.60938-1.02588-4.19336-1.02588-1.51172,0-2.87988.35449-4.10352,1.06201-1.22461.70801-2.18457,1.71631-2.88086,3.02393-.69629,1.30859-1.04395,2.81445-1.04395,4.51807,0,1.72803.34766,3.24609,1.04395,4.5542s1.65625,2.31641,2.88086,3.02393c1.22363.70801,2.5918,1.06201,4.10352,1.06201,1.58398,0,2.98242-.34766,4.19336-1.04395,1.21289-.6958,2.1543-1.69238,2.82617-2.98828s1.00781-2.83154,1.00781-4.60791c0-1.77588-.33594-3.31201-1.00781-4.60791Z" style="fill: #333;"/>
      <path d="m1410.25977,389.91602c.80371-1.51221,1.91992-2.67578,3.34766-3.49219,1.42773-.81543,3.05469-1.22363,4.87891-1.22363,2.06348,0,3.81543.50391,5.25586,1.51172,1.43945,1.0083,2.44727,2.29248,3.02344,3.85205v-5.11182h1.62012v19.54785h-1.62012v-5.14795c-.57617,1.58398-1.58984,2.88623-3.04199,3.90576-1.45215,1.02051-3.19824,1.53027-5.2373,1.53027-1.82422,0-3.45117-.41406-4.87891-1.24219s-2.54395-2.00342-3.34766-3.52783c-.80469-1.52393-1.20605-3.29395-1.20605-5.31006s.40137-3.77979,1.20605-5.29199Zm15.44434.77393c-.70801-1.30762-1.6748-2.31592-2.89844-3.02393-1.22363-.70752-2.5918-1.06201-4.10449-1.06201-1.58398,0-2.97559.3418-4.17578,1.02588-1.19922.68408-2.13574,1.67432-2.80762,2.97021s-1.00781,2.83203-1.00781,4.60791c0,1.77637.33594,3.31201,1.00781,4.60791s1.61426,2.29248,2.82617,2.98828c1.21191.69629,2.59766,1.04395,4.15723,1.04395,1.5127,0,2.88672-.354,4.12305-1.06201,1.23535-.70752,2.20117-1.71582,2.89746-3.02393s1.04395-2.82617,1.04395-4.5542c0-1.70361-.35352-3.20947-1.06152-4.51807Z" style="fill: #333;"/>
      <path d="m1438.46484,386.18994c1.22461-.75586,2.78418-1.13379,4.68066-1.13379v1.69189h-.54004c-1.91992,0-3.51562.5459-4.78809,1.63818s-1.9082,2.87402-1.9082,5.3457v11.26807h-1.62012v-19.54785h1.62012v4.03174c.47949-1.43994,1.33203-2.53809,2.55566-3.29395Z" style="fill: #333;"/>
      <path d="m1464.42188,395.85596h-16.88477c.04883,1.75244.43262,3.22803,1.15234,4.42822.7207,1.2002,1.66797,2.1001,2.84375,2.69971,1.17578.6001,2.45996.8999,3.85254.8999,1.91895,0,3.52832-.47363,4.82324-1.42188,1.29688-.94775,2.1123-2.2373,2.44922-3.87012h1.69141c-.38477,1.99268-1.36816,3.60645-2.95215,4.84229-1.58398,1.23633-3.58887,1.854-6.01172,1.854-1.82422,0-3.45605-.40771-4.89648-1.22412-1.44043-.81543-2.56836-1.98535-3.38379-3.50977-.81641-1.52393-1.22461-3.30615-1.22461-5.34619,0-2.03955.40234-3.81592,1.20703-5.32812.80273-1.51172,1.92578-2.66943,3.36523-3.47412,1.44043-.80371,3.08398-1.20557,4.93262-1.20557,1.87207,0,3.49707.40186,4.87793,1.20557,1.37988.80469,2.42969,1.87207,3.15039,3.2041.71875,1.33203,1.08008,2.7666,1.08008,4.30225,0,.86377-.02539,1.51172-.07227,1.94385Zm-2.4668-5.72412c-.68359-1.19971-1.61328-2.09326-2.78906-2.68164-1.17676-.58789-2.44922-.88232-3.81641-.88232-1.36816,0-2.63477.29443-3.79883.88232-1.16406.58838-2.11133,1.48193-2.84375,2.68164-.73242,1.20068-1.12109,2.66406-1.16992,4.39209h15.33594c.07227-1.72803-.2334-3.19141-.91797-4.39209Z" style="fill: #333;"/>
      <path d="m1483.89746,387.19824c1.46387,1.42773,2.19629,3.5459,2.19629,6.35352v11.44824h-1.58398v-11.33984c0-2.32764-.58887-4.10986-1.76367-5.34619-1.17676-1.23584-2.77246-1.854-4.78906-1.854-2.11133,0-3.79688.67236-5.05762,2.01611-1.25977,1.34424-1.88965,3.33594-1.88965,5.97607v10.54785h-1.62012v-19.54785h1.62012v4.13965c.55176-1.46338,1.46973-2.58545,2.75391-3.36572,1.2832-.77979,2.76562-1.16992,4.44531-1.16992,2.32812,0,4.22461.71436,5.68848,2.14209Z" style="fill: #333;"/>
      <path d="m1492.01465,389.87988c.80371-1.51172,1.91992-2.66943,3.34863-3.47412,1.42773-.80371,3.06445-1.20557,4.91406-1.20557,2.44727,0,4.45703.61182,6.0293,1.83594,1.57227,1.22363,2.5498,2.86816,2.93359,4.93164h-1.69141c-.3125-1.6792-1.12207-2.99951-2.42969-3.95996-1.30859-.95947-2.92188-1.43994-4.8418-1.43994-1.44043,0-2.74902.31836-3.9248.9541-1.17578.63623-2.11816,1.6084-2.8252,2.91602-.70898,1.30859-1.0625,2.89795-1.0625,4.77002,0,1.896.35352,3.49219,1.0625,4.78809.70703,1.2959,1.64941,2.26807,2.8252,2.91602s2.48438.97168,3.9248.97168c1.91992,0,3.5332-.47949,4.8418-1.43994,1.30762-.95947,2.11719-2.27979,2.42969-3.95996h1.69141c-.38379,2.04053-1.36719,3.68457-2.95117,4.93213-1.58398,1.24805-3.58789,1.87207-6.01172,1.87207-1.84961,0-3.48633-.40771-4.91406-1.22412-1.42871-.81543-2.54492-1.98535-3.34863-3.50977-.80371-1.52393-1.20605-3.30615-1.20605-5.34619,0-2.03955.40234-3.81592,1.20605-5.32812Z" style="fill: #333;"/>
      <path d="m1529.43555,385.45215l-11.375,28.72803h-1.65625l3.63574-9.18018-8.20801-19.54785h1.76367l7.34473,17.74805,6.83984-17.74805h1.65527Z" style="fill: #333;"/>
    </g>
    <g id="intentionality-text">
      <path d="m1300.57227,622.72852v25.27148h-1.62012v-25.27148h1.62012Z" style="fill: #333;"/>
      <path d="m1321.01953,630.19824c1.46387,1.42773,2.19531,3.5459,2.19531,6.35352v11.44824h-1.58398v-11.33984c0-2.32812-.58789-4.10938-1.76367-5.3457s-2.77148-1.85449-4.78711-1.85449c-2.11328,0-3.79883.67285-5.05859,2.0166s-1.89062,3.33594-1.89062,5.97559v10.54785h-1.61914v-19.54785h1.61914v4.13965c.55273-1.46289,1.4707-2.58594,2.75488-3.36523,1.28418-.78027,2.76562-1.16992,4.44629-1.16992,2.32715,0,4.22266.71387,5.6875,2.1416Z" style="fill: #333;"/>
      <path d="m1331.35156,629.85547v12.92383c0,1.44141.26367,2.43066.79102,2.9707.52832.54004,1.46484.81055,2.80859.81055h2.19629v1.43945h-2.44824c-1.7041,0-2.95801-.40234-3.76172-1.20605-.80469-.80371-1.20605-2.1416-1.20605-4.01465v-12.92383h-2.95215v-1.40332h2.95215v-4.96777h1.62012v4.96777h5.7959v1.40332h-5.7959Z" style="fill: #333;"/>
      <path d="m1358.96289,638.85547h-16.88477c.04883,1.75293.43262,3.22852,1.15234,4.42871.7207,1.2002,1.66797,2.10059,2.84375,2.7002s2.45996.89941,3.85254.89941c1.91895,0,3.52832-.47363,4.82324-1.42188,1.29688-.94824,2.1123-2.2373,2.44922-3.87012h1.69141c-.38477,1.99219-1.36816,3.60645-2.95215,4.8418-1.58398,1.23633-3.58887,1.85449-6.01172,1.85449-1.82422,0-3.45605-.40723-4.89648-1.22363s-2.56836-1.98633-3.38379-3.50977c-.81641-1.52441-1.22461-3.30664-1.22461-5.34668s.40234-3.81543,1.20703-5.32812c.80273-1.51172,1.92578-2.66895,3.36523-3.47363,1.44043-.80469,3.08398-1.20605,4.93262-1.20605,1.87207,0,3.49707.40137,4.87793,1.20605,1.37988.80469,2.42969,1.87109,3.15039,3.20312.71875,1.33203,1.08008,2.76758,1.08008,4.30273,0,.86328-.02539,1.51172-.07227,1.94336Zm-2.4668-5.72363c-.68359-1.2002-1.61328-2.09277-2.78906-2.68164-1.17676-.58789-2.44922-.88184-3.81641-.88184-1.36816,0-2.63477.29395-3.79883.88184-1.16406.58887-2.11133,1.48145-2.84375,2.68164s-1.12109,2.66406-1.16992,4.3916h15.33594c.07227-1.72754-.2334-3.19141-.91797-4.3916Z" style="fill: #333;"/>
      <path d="m1378.43848,630.19824c1.46387,1.42773,2.19629,3.5459,2.19629,6.35352v11.44824h-1.58398v-11.33984c0-2.32812-.58887-4.10938-1.76367-5.3457-1.17676-1.23633-2.77246-1.85449-4.78906-1.85449-2.11133,0-3.79688.67285-5.05762,2.0166-1.25977,1.34375-1.88965,3.33594-1.88965,5.97559v10.54785h-1.62012v-19.54785h1.62012v4.13965c.55176-1.46289,1.46973-2.58594,2.75391-3.36523,1.2832-.78027,2.76562-1.16992,4.44531-1.16992,2.32812,0,4.22461.71387,5.68848,2.1416Z" style="fill: #333;"/>
      <path d="m1388.76953,629.85547v12.92383c0,1.44141.26465,2.43066.79297,2.9707.52734.54004,1.46289.81055,2.80762.81055h2.19629v1.43945h-2.44824c-1.7041,0-2.95801-.40234-3.76172-1.20605-.80469-.80371-1.20605-2.1416-1.20605-4.01465v-12.92383h-2.95215v-1.40332h2.95215v-4.96777h1.61914v4.96777h5.79688v1.40332h-5.79688Z" style="fill: #333;"/>
      <path d="m1398.70508,623.71777c-.26367-.25195-.39551-.59375-.39551-1.02637,0-.40723.13184-.74316.39551-1.00781.26367-.26367.58789-.39551.97266-.39551.38281,0,.70703.13184.97168.39551.26367.26465.39551.60059.39551,1.00781,0,.43262-.13184.77441-.39551,1.02637-.26465.25293-.58887.37793-.97168.37793-.38477,0-.70898-.125-.97266-.37793Zm1.76367,4.73438v19.54785h-1.61914v-19.54785h1.61914Z" style="fill: #333;"/>
      <path d="m1410.08105,647.06445c-1.46387-.81641-2.61035-1.98633-3.43848-3.50977-.82812-1.52441-1.24219-3.30664-1.24219-5.34668,0-2.0166.41992-3.78613,1.26074-5.30957.83984-1.52441,1.99805-2.6875,3.47363-3.49219,1.47656-.80469,3.12598-1.20605,4.9502-1.20605,1.82324,0,3.46777.40137,4.93262,1.20605,1.46289.80469,2.60938,1.96191,3.4375,3.47363.82812,1.5127,1.24219,3.28809,1.24219,5.32812s-.41992,3.82227-1.25977,5.34668c-.84082,1.52344-1.99805,2.69336-3.47461,3.50977s-3.12695,1.22363-4.94922,1.22363c-1.82422,0-3.46875-.40723-4.93262-1.22363Zm8.91016-1.16992c1.23535-.63672,2.22559-1.60254,2.96973-2.89844s1.11621-2.89258,1.11621-4.78809c0-1.87207-.37207-3.45605-1.11621-4.75195s-1.72852-2.26172-2.95215-2.89746c-1.22363-.63672-2.54395-.95508-3.95996-.95508s-2.73047.31836-3.94141.95508c-1.21289.63574-2.19141,1.60156-2.93457,2.89746-.74414,1.2959-1.11621,2.87988-1.11621,4.75195,0,1.89551.36621,3.49219,1.09863,4.78809.73145,1.2959,1.7041,2.26172,2.91504,2.89844,1.21289.63574,2.52637.95312,3.94336.95312,1.41504,0,2.74121-.31738,3.97754-.95312Z" style="fill: #333;"/>
      <path d="m1444.13672,630.19824c1.46387,1.42773,2.19531,3.5459,2.19531,6.35352v11.44824h-1.58398v-11.33984c0-2.32812-.58789-4.10938-1.76367-5.3457s-2.77148-1.85449-4.78711-1.85449c-2.11328,0-3.79883.67285-5.05859,2.0166s-1.89062,3.33594-1.89062,5.97559v10.54785h-1.61914v-19.54785h1.61914v4.13965c.55273-1.46289,1.4707-2.58594,2.75488-3.36523,1.28418-.78027,2.76562-1.16992,4.44629-1.16992,2.32715,0,4.22266.71387,5.6875,2.1416Z" style="fill: #333;"/>
      <path d="m1452.25391,632.91602c.80469-1.51172,1.91992-2.67578,3.34863-3.49219,1.42773-.81543,3.05371-1.22363,4.87793-1.22363,2.06445,0,3.81641.50391,5.25586,1.51172,1.43945,1.00879,2.44824,2.29199,3.02344,3.85254v-5.1123h1.62109v19.54785h-1.62109v-5.14844c-.5752,1.58398-1.58984,2.88672-3.04102,3.90625-1.45312,1.02051-3.19922,1.53027-5.23828,1.53027-1.82422,0-3.4502-.41406-4.87793-1.24219-1.42871-.82812-2.54395-2.00293-3.34863-3.52832-.80371-1.52344-1.20508-3.29297-1.20508-5.30957s.40137-3.78027,1.20508-5.29199Zm15.44531.77344c-.70898-1.30664-1.6748-2.31543-2.89844-3.02344-1.22461-.70703-2.5918-1.0625-4.10449-1.0625-1.58398,0-2.97559.3418-4.17578,1.02637s-2.13574,1.6748-2.80762,2.96973c-.67188,1.29688-1.00781,2.83203-1.00781,4.6084s.33594,3.31152,1.00781,4.6084c.67188,1.29492,1.61328,2.29199,2.82617,2.98828,1.21094.69531,2.59766,1.04297,4.15723,1.04297,1.5127,0,2.88574-.35352,4.12207-1.06152s2.20117-1.71582,2.89844-3.02441c.69531-1.30762,1.04297-2.82617,1.04297-4.55371,0-1.7041-.35352-3.20996-1.06055-4.51855Z" style="fill: #333;"/>
      <path d="m1477.9043,621.35938v26.64062h-1.62012v-26.64062h1.62012Z" style="fill: #333;"/>
      <path d="m1483.69922,623.71777c-.26367-.25195-.39551-.59375-.39551-1.02637,0-.40723.13184-.74316.39551-1.00781.26367-.26367.58789-.39551.97266-.39551.38281,0,.70703.13184.97168.39551.26367.26465.39551.60059.39551,1.00781,0,.43262-.13184.77441-.39551,1.02637-.26465.25293-.58887.37793-.97168.37793-.38477,0-.70898-.125-.97266-.37793Zm1.76367,4.73438v19.54785h-1.61914v-19.54785h1.61914Z" style="fill: #333;"/>
      <path d="m1493.81445,629.85547v12.92383c0,1.44141.26465,2.43066.79297,2.9707.52734.54004,1.46289.81055,2.80762.81055h2.19629v1.43945h-2.44824c-1.7041,0-2.95801-.40234-3.76172-1.20605-.80469-.80371-1.20605-2.1416-1.20605-4.01465v-12.92383h-2.95215v-1.40332h2.95215v-4.96777h1.61914v4.96777h5.79688v1.40332h-5.79688Z" style="fill: #333;"/>
      <path d="m1519.1582,628.45215l-11.375,28.72754h-1.65625l3.63574-9.17969-8.20801-19.54785h1.76367l7.34473,17.74805,6.83984-17.74805h1.65527Z" style="fill: #333;"/>
    </g>
    <g id="value=text">
      <path d="m1174.03223,826.07422l-9.64844,25.27148h-1.7998l-9.61133-25.27148h1.76367l8.74805,23.36328,8.82031-23.36328h1.72754Z" style="fill: #333;"/>
      <path d="m1178.1543,836.26172c.80273-1.51172,1.91992-2.67578,3.34766-3.49219,1.42773-.81543,3.05371-1.22363,4.87793-1.22363,2.06348,0,3.81543.50391,5.25586,1.51172,1.44043,1.00879,2.44824,2.29199,3.02441,3.85254v-5.1123h1.61914v19.54785h-1.61914v-5.14844c-.57617,1.58398-1.58984,2.88672-3.04297,3.90625-1.45117,1.02051-3.19727,1.53027-5.2373,1.53027-1.82422,0-3.4502-.41406-4.87793-1.24219s-2.54492-2.00293-3.34766-3.52832c-.80469-1.52344-1.20703-3.29297-1.20703-5.30957s.40234-3.78027,1.20703-5.29199Zm15.44336.77344c-.70801-1.30664-1.67383-2.31543-2.89844-3.02344-1.22266-.70703-2.5918-1.0625-4.10352-1.0625-1.58398,0-2.97656.3418-4.17578,1.02637-1.2002.68457-2.13672,1.6748-2.80859,2.96973-.67188,1.29688-1.00781,2.83203-1.00781,4.6084s.33594,3.31152,1.00781,4.6084c.67188,1.29492,1.61426,2.29199,2.82617,2.98828,1.21191.69531,2.59766,1.04297,4.1582,1.04297,1.51172,0,2.88574-.35352,4.12207-1.06152,1.23535-.70801,2.20215-1.71582,2.89746-3.02441.69629-1.30762,1.04492-2.82617,1.04492-4.55371,0-1.7041-.35449-3.20996-1.0625-4.51855Z" style="fill: #333;"/>
      <path d="m1203.80273,824.70508v26.64062h-1.61914v-26.64062h1.61914Z" style="fill: #333;"/>
      <path d="m1226.26758,831.79785v19.54785h-1.62109v-4.24805c-.55176,1.48828-1.46973,2.62305-2.75391,3.40234-1.2832.7793-2.75391,1.16992-4.41016,1.16992-2.32812,0-4.22949-.71387-5.70508-2.14258-1.47656-1.42773-2.21484-3.54492-2.21484-6.35352v-11.37598h1.58398v11.26855c0,2.32812.58789,4.10938,1.76465,5.3457,1.1748,1.23633,2.77246,1.85352,4.78809,1.85352,2.11133,0,3.79785-.67188,5.05762-2.01562,1.26074-1.34375,1.88965-3.33594,1.88965-5.97656v-10.47559h1.62109Z" style="fill: #333;"/>
      <path d="m1249.70312,842.20117h-16.88477c.04883,1.75293.43262,3.22852,1.15234,4.42871.7207,1.2002,1.66797,2.10059,2.84375,2.7002s2.45996.89941,3.85254.89941c1.91895,0,3.52832-.47363,4.82324-1.42188,1.29688-.94824,2.1123-2.2373,2.44922-3.87012h1.69141c-.38477,1.99219-1.36816,3.60645-2.95215,4.8418-1.58398,1.23633-3.58887,1.85449-6.01172,1.85449-1.82422,0-3.45605-.40723-4.89648-1.22363s-2.56836-1.98633-3.38379-3.50977c-.81641-1.52441-1.22461-3.30664-1.22461-5.34668s.40234-3.81543,1.20703-5.32812c.80273-1.51172,1.92578-2.66895,3.36523-3.47363,1.44043-.80469,3.08398-1.20605,4.93262-1.20605,1.87207,0,3.49707.40137,4.87793,1.20605,1.37988.80469,2.42969,1.87109,3.15039,3.20312.71875,1.33203,1.08008,2.76758,1.08008,4.30273,0,.86328-.02539,1.51172-.07227,1.94336Zm-2.4668-5.72363c-.68359-1.2002-1.61328-2.09277-2.78906-2.68164-1.17676-.58789-2.44922-.88184-3.81641-.88184-1.36816,0-2.63477.29395-3.79883.88184-1.16406.58887-2.11133,1.48145-2.84375,2.68164s-1.12109,2.66406-1.16992,4.3916h15.33594c.07227-1.72754-.2334-3.19141-.91797-4.3916Z" style="fill: #333;"/>
    </g>
    <g id="balance-text">
      <path d="m1169.5498,190.4375c.99512,1.17676,1.49414,2.55664,1.49414,4.14062,0,1.2959-.30566,2.4541-.91797,3.47363-.6123,1.02051-1.52441,1.82422-2.73535,2.41211-1.21289.58887-2.68262.88184-4.41016.88184h-8.02832v-25.27148h7.88379c2.51953,0,4.42188.58203,5.70605,1.74609s1.92578,2.66992,1.92578,4.51758c0,1.6084-.43164,2.91016-1.2959,3.90625-.86328.99609-1.96875,1.67383-3.3125,2.03418,1.46484.26367,2.69434.98438,3.69043,2.15918Zm-12.97754-2.87988h6.33594c1.89551,0,3.35352-.44922,4.37402-1.34961,1.01953-.90039,1.53027-2.1416,1.53027-3.72559,0-1.53613-.50391-2.74805-1.5127-3.63672-1.00781-.8877-2.53223-1.33203-4.57129-1.33203h-6.15625v10.04395Zm11.10547,10.92676c1.16406-.97266,1.74609-2.30957,1.74609-4.01465,0-1.67969-.59375-3.01758-1.78125-4.01367-1.18848-.99609-2.81445-1.49414-4.87891-1.49414h-6.19141v10.98047h6.2998c2.04004,0,3.6416-.48633,4.80566-1.45801Z" style="fill: #333;"/>
      <path d="m1175.99414,186.26172c.80273-1.51172,1.91992-2.67578,3.34766-3.49219,1.42773-.81543,3.05371-1.22363,4.87793-1.22363,2.06348,0,3.81543.50391,5.25586,1.51172,1.44043,1.00879,2.44824,2.29297,3.02441,3.85254v-5.1123h1.61914v19.54785h-1.61914v-5.14746c-.57617,1.58398-1.58984,2.88574-3.04297,3.90527-1.45117,1.02051-3.19727,1.53027-5.2373,1.53027-1.82422,0-3.4502-.41406-4.87793-1.24219s-2.54492-2.00293-3.34766-3.52734c-.80469-1.52441-1.20703-3.29395-1.20703-5.31055,0-2.01562.40234-3.7793,1.20703-5.29199Zm15.44336.77441c-.70801-1.30762-1.67383-2.31641-2.89844-3.02441-1.22266-.70703-2.5918-1.06152-4.10352-1.06152-1.58398,0-2.97656.3418-4.17578,1.02539-1.2002.68457-2.13672,1.6748-2.80859,2.9707s-1.00781,2.83203-1.00781,4.60742c0,1.77637.33594,3.3125,1.00781,4.6084s1.61426,2.29199,2.82617,2.98828,2.59766,1.04395,4.1582,1.04395c1.51172,0,2.88574-.35449,4.12207-1.0625,1.23535-.70703,2.20215-1.71582,2.89746-3.02344.69629-1.30859,1.04492-2.82617,1.04492-4.55469,0-1.70312-.35449-3.20898-1.0625-4.51758Z" style="fill: #333;"/>
      <path d="m1201.64258,174.70605v26.63965h-1.61914v-26.63965h1.61914Z" style="fill: #333;"/>
      <path d="m1207.78125,186.26172c.80273-1.51172,1.91992-2.67578,3.34766-3.49219,1.42773-.81543,3.05371-1.22363,4.87793-1.22363,2.06348,0,3.81543.50391,5.25586,1.51172,1.44043,1.00879,2.44824,2.29297,3.02441,3.85254v-5.1123h1.61914v19.54785h-1.61914v-5.14746c-.57617,1.58398-1.58984,2.88574-3.04297,3.90527-1.45117,1.02051-3.19727,1.53027-5.2373,1.53027-1.82422,0-3.4502-.41406-4.87793-1.24219s-2.54492-2.00293-3.34766-3.52734c-.80469-1.52441-1.20703-3.29395-1.20703-5.31055,0-2.01562.40234-3.7793,1.20703-5.29199Zm15.44336.77441c-.70801-1.30762-1.67383-2.31641-2.89844-3.02441-1.22266-.70703-2.5918-1.06152-4.10352-1.06152-1.58398,0-2.97656.3418-4.17578,1.02539-1.2002.68457-2.13672,1.6748-2.80859,2.9707s-1.00781,2.83203-1.00781,4.60742c0,1.77637.33594,3.3125,1.00781,4.6084s1.61426,2.29199,2.82617,2.98828,2.59766,1.04395,4.1582,1.04395c1.51172,0,2.88574-.35449,4.12207-1.0625,1.23535-.70703,2.20215-1.71582,2.89746-3.02344.69629-1.30859,1.04492-2.82617,1.04492-4.55469,0-1.70312-.35449-3.20898-1.0625-4.51758Z" style="fill: #333;"/>
      <path d="m1246.31836,183.54395c1.46484,1.42773,2.19629,3.5459,2.19629,6.35352v11.44824h-1.58398v-11.33984c0-2.32715-.58887-4.10938-1.76367-5.3457-1.17676-1.23633-2.77246-1.85449-4.78809-1.85449-2.1123,0-3.79785.67285-5.05859,2.0166-1.25977,1.34375-1.88965,3.33594-1.88965,5.97559v10.54785h-1.62012v-19.54785h1.62012v4.13965c.55176-1.46289,1.46973-2.58496,2.75488-3.36523,1.2832-.78027,2.76562-1.16992,4.44531-1.16992,2.32812,0,4.22363.71387,5.6875,2.1416Z" style="fill: #333;"/>
      <path d="m1254.43555,186.22559c.80469-1.51172,1.91992-2.66895,3.34863-3.47363,1.42773-.80371,3.06543-1.20605,4.91406-1.20605,2.44824,0,4.45801.6123,6.03027,1.83594,1.57129,1.22363,2.54883,2.86816,2.93359,4.93164h-1.69141c-.3125-1.67871-1.12305-2.99902-2.43066-3.95996-1.30762-.95898-2.92188-1.43945-4.8418-1.43945-1.44043,0-2.74902.31836-3.9248.9541s-2.11719,1.6084-2.8252,2.91602c-.70801,1.30859-1.06152,2.89746-1.06152,4.76953,0,1.89648.35352,3.49219,1.06152,4.78809s1.64941,2.26855,2.8252,2.91602c1.17578.64844,2.48438.97168,3.9248.97168,1.91992,0,3.53418-.47949,4.8418-1.43945s2.11816-2.28027,2.43066-3.95996h1.69141c-.38477,2.04004-1.36816,3.68457-2.95215,4.93164-1.58398,1.24805-3.58789,1.87207-6.01172,1.87207-1.84863,0-3.48633-.40723-4.91406-1.22363-1.42871-.81543-2.54395-1.98535-3.34863-3.50977-.80371-1.52441-1.20508-3.30664-1.20508-5.34668,0-2.03906.40137-3.81543,1.20508-5.32812Z" style="fill: #333;"/>
      <path d="m1294.125,192.20215h-16.88281c.04688,1.75195.43164,3.22754,1.15137,4.42773s1.66797,2.10059,2.84473,2.7002c1.1748.59961,2.45898.89941,3.85156.89941,1.91992,0,3.52734-.47363,4.82422-1.42188,1.29492-.94727,2.11133-2.2373,2.44727-3.87012h1.69238c-.38379,1.99316-1.36816,3.60645-2.95215,4.84277s-3.58789,1.85352-6.01172,1.85352c-1.82422,0-3.45605-.40723-4.89648-1.22363-1.43945-.81543-2.56836-1.98535-3.38379-3.50977s-1.22363-3.30664-1.22363-5.34668c0-2.03906.40137-3.81543,1.20508-5.32812.80469-1.51172,1.92676-2.66895,3.36719-3.47363,1.43945-.80371,3.08301-1.20605,4.93164-1.20605,1.87109,0,3.49805.40234,4.87793,1.20605,1.37988.80469,2.42969,1.87207,3.14941,3.2041.7207,1.33203,1.08008,2.7666,1.08008,4.30176,0,.86426-.02344,1.51172-.07227,1.94434Zm-2.46484-5.72461c-.68457-1.19922-1.61523-2.09277-2.79102-2.68164-1.17578-.58789-2.44727-.88184-3.81543-.88184s-2.63379.29395-3.79785.88184c-1.16406.58887-2.1123,1.48242-2.84375,2.68164-.73242,1.20117-1.12305,2.66406-1.16992,4.39258h15.33594c.07129-1.72852-.23438-3.19141-.91797-4.39258Z" style="fill: #333;"/>
    </g>
    <g id="encyclopedic-text">
      <path d="m238.57178,379.44238v10.54785h10.08008v1.36816h-10.08008v10.61914h11.16016v1.36816h-12.77979v-25.27148h12.77979v1.36816h-11.16016Z" style="fill: #333;"/>
      <path d="m269.13574,385.54395c1.46387,1.42773,2.1958,3.5459,2.1958,6.35352v11.44824h-1.58398v-11.33984c0-2.32715-.58838-4.10938-1.76367-5.3457-1.17627-1.23633-2.77197-1.85449-4.78809-1.85449-2.1123,0-3.79785.67285-5.05811,2.0166-1.25977,1.34375-1.89014,3.33594-1.89014,5.97559v10.54785h-1.61963v-19.54785h1.61963v4.13965c.55225-1.46289,1.47021-2.58496,2.75439-3.36523,1.28369-.78027,2.76562-1.16992,4.4458-1.16992,2.32764,0,4.22363.71387,5.68799,2.1416Z" style="fill: #333;"/>
      <path d="m277.25342,388.22559c.80371-1.51172,1.91992-2.66895,3.34814-3.47363,1.42773-.80371,3.06543-1.20605,4.91406-1.20605,2.44775,0,4.45752.6123,6.02979,1.83594,1.57178,1.22363,2.5498,2.86816,2.93408,4.93164h-1.69189c-.3125-1.67871-1.12207-2.99902-2.43018-3.95996-1.30811-.95898-2.92188-1.43945-4.8418-1.43945-1.43994,0-2.74854.31836-3.92432.9541s-2.11816,1.6084-2.82568,2.91602c-.7085,1.30859-1.06201,2.89746-1.06201,4.76953,0,1.89648.35352,3.49219,1.06201,4.78809.70752,1.2959,1.6499,2.26855,2.82568,2.91602,1.17578.64844,2.48438.97168,3.92432.97168,1.91992,0,3.53369-.47949,4.8418-1.43945s2.11768-2.28027,2.43018-3.95996h1.69189c-.38428,2.04004-1.36816,3.68457-2.95215,4.93164-1.58398,1.24805-3.58789,1.87207-6.01172,1.87207-1.84863,0-3.48633-.40723-4.91406-1.22363-1.42822-.81543-2.54443-1.98535-3.34814-3.50977-.8042-1.52441-1.20605-3.30664-1.20605-5.34668,0-2.03906.40186-3.81543,1.20605-5.32812Z" style="fill: #333;"/>
      <path d="m314.6748,383.79785l-11.37598,28.72852h-1.65576l3.63574-9.18066-8.20801-19.54785h1.76416l7.34424,17.74805,6.83984-17.74805h1.65576Z" style="fill: #333;"/>
      <path d="m318.47217,388.22559c.80371-1.51172,1.91992-2.66895,3.34814-3.47363,1.42773-.80371,3.06543-1.20605,4.91406-1.20605,2.44775,0,4.45752.6123,6.02979,1.83594,1.57178,1.22363,2.5498,2.86816,2.93408,4.93164h-1.69189c-.3125-1.67871-1.12207-2.99902-2.43018-3.95996-1.30811-.95898-2.92188-1.43945-4.8418-1.43945-1.43994,0-2.74854.31836-3.92432.9541s-2.11816,1.6084-2.82568,2.91602c-.7085,1.30859-1.06201,2.89746-1.06201,4.76953,0,1.89648.35352,3.49219,1.06201,4.78809.70752,1.2959,1.6499,2.26855,2.82568,2.91602,1.17578.64844,2.48438.97168,3.92432.97168,1.91992,0,3.53369-.47949,4.8418-1.43945s2.11768-2.28027,2.43018-3.95996h1.69189c-.38428,2.04004-1.36816,3.68457-2.95215,4.93164-1.58398,1.24805-3.58789,1.87207-6.01172,1.87207-1.84863,0-3.48633-.40723-4.91406-1.22363-1.42822-.81543-2.54443-1.98535-3.34814-3.50977-.8042-1.52441-1.20605-3.30664-1.20605-5.34668,0-2.03906.40186-3.81543,1.20605-5.32812Z" style="fill: #333;"/>
      <path d="m342.24951,376.70605v26.63965h-1.61963v-26.63965h1.61963Z" style="fill: #333;"/>
      <path d="m351.86182,402.41016c-1.46436-.81543-2.60986-1.98535-3.43799-3.50977s-1.24219-3.30664-1.24219-5.34668c0-2.01562.41992-3.78516,1.26025-5.30957.83984-1.52441,1.99805-2.6875,3.47412-3.49219,1.47559-.80371,3.12549-1.20605,4.94971-1.20605,1.82373,0,3.46777.40234,4.93213,1.20605,1.46338.80469,2.60986,1.96191,3.43799,3.47363.82812,1.5127,1.24219,3.28906,1.24219,5.32812,0,2.04004-.42041,3.82227-1.26025,5.34668-.84033,1.52441-1.99805,2.69434-3.47412,3.50977-1.47607.81641-3.12646,1.22363-4.94971,1.22363-1.82422,0-3.46875-.40723-4.93213-1.22363Zm8.91016-1.16992c1.23584-.63574,2.22559-1.60254,2.96973-2.89844.74365-1.2959,1.11621-2.8916,1.11621-4.78809,0-1.87207-.37256-3.45605-1.11621-4.75195-.74414-1.2959-1.72803-2.26172-2.95215-2.89746-1.22363-.63574-2.54395-.9541-3.95996-.9541s-2.72998.31836-3.94189.9541-2.19043,1.60156-2.93408,2.89746c-.74414,1.2959-1.11572,2.87988-1.11572,4.75195,0,1.89648.36572,3.49219,1.09814,4.78809.73145,1.2959,1.70361,2.2627,2.91553,2.89844s2.52588.9541,3.94238.9541c1.41553,0,2.7417-.31836,3.97803-.9541Z" style="fill: #333;"/>
      <path d="m376.03516,385.05762c1.45166-1.00781,3.20947-1.51172,5.27393-1.51172,1.82373,0,3.44971.4082,4.87793,1.22363,1.42773.81641,2.54346,1.98047,3.34814,3.49219.80371,1.5127,1.20605,3.27637,1.20605,5.29199,0,2.0166-.40234,3.78613-1.20605,5.31055-.80469,1.52441-1.92041,2.69922-3.34814,3.52734-1.42822.82812-3.0542,1.24219-4.87793,1.24219-2.04004,0-3.78613-.50977-5.23828-1.53027-1.45215-1.01953-2.46582-2.30957-3.04199-3.86914v14.32715h-1.61963v-28.76367h1.61963v5.14844c.55225-1.58398,1.55371-2.87988,3.00635-3.88867Zm12.04199,3.88867c-.67236-1.2959-1.61426-2.28613-2.82617-2.9707-1.21191-.68359-2.60986-1.02539-4.19385-1.02539-1.51221,0-2.87988.35449-4.104,1.06152-1.22412.70801-2.18408,1.7168-2.87988,3.02441-.69678,1.30859-1.04443,2.81445-1.04443,4.51758,0,1.72852.34766,3.24609,1.04443,4.55469.6958,1.30762,1.65576,2.31641,2.87988,3.02344,1.22412.70801,2.5918,1.0625,4.104,1.0625,1.58398,0,2.98193-.34766,4.19385-1.04395s2.15381-1.69238,2.82617-2.98828c.67139-1.2959,1.00781-2.83203,1.00781-4.6084,0-1.77539-.33643-3.31152-1.00781-4.60742Z" style="fill: #333;"/>
      <path d="m413.16895,394.20215h-16.88379c.04785,1.75195.43213,3.22754,1.15186,4.42773.72021,1.2002,1.66797,2.10059,2.84424,2.7002,1.17529.59961,2.45947.89941,3.85205.89941,1.91943,0,3.52783-.47363,4.82373-1.42188,1.2959-.94727,2.11182-2.2373,2.44824-3.87012h1.69189c-.38428,1.99316-1.36816,3.60645-2.95215,4.84277s-3.58838,1.85352-6.01172,1.85352c-1.82422,0-3.45605-.40723-4.89648-1.22363-1.43994-.81543-2.56836-1.98535-3.38379-3.50977-.81592-1.52441-1.22412-3.30664-1.22412-5.34668,0-2.03906.40186-3.81543,1.20605-5.32812.80371-1.51172,1.92627-2.66895,3.36621-3.47363,1.43994-.80371,3.0835-1.20605,4.93213-1.20605,1.87158,0,3.49756.40234,4.87793,1.20605,1.37988.80469,2.42969,1.87207,3.1499,3.2041.71973,1.33203,1.08008,2.7666,1.08008,4.30176,0,.86426-.02441,1.51172-.07227,1.94434Zm-2.46582-5.72461c-.68408-1.19922-1.61426-2.09277-2.79004-2.68164-1.17627-.58789-2.44824-.88184-3.81592-.88184-1.36816,0-2.63428.29395-3.79834.88184-1.16406.58887-2.11182,1.48242-2.84375,2.68164-.73242,1.20117-1.12207,2.66406-1.16992,4.39258h15.33594c.07178-1.72852-.23389-3.19141-.91797-4.39258Z" style="fill: #333;"/>
      <path d="m418.33496,388.26172c.80371-1.51172,1.91992-2.67578,3.34814-3.49219,1.42773-.81543,3.05371-1.22363,4.87793-1.22363,1.9917,0,3.71973.49805,5.18408,1.49414,1.46338.99609,2.49561,2.28613,3.0957,3.87012v-12.2041h1.62012v26.63965h-1.62012v-5.18359c-.57568,1.6084-1.58398,2.92188-3.02393,3.94141-1.43994,1.02051-3.19189,1.53027-5.25586,1.53027-1.82422,0-3.4502-.41406-4.87793-1.24219-1.42822-.82812-2.54443-2.00293-3.34814-3.52734-.8042-1.52441-1.20605-3.29395-1.20605-5.31055,0-2.01562.40186-3.7793,1.20605-5.29199Zm15.44434.77441c-.7085-1.30762-1.67432-2.31641-2.89844-3.02441-1.22363-.70703-2.5918-1.06152-4.104-1.06152-1.58398,0-2.97607.3418-4.17578,1.02539-1.2002.68457-2.13623,1.6748-2.80811,2.9707s-1.00781,2.83203-1.00781,4.60742c0,1.77637.33594,3.3125,1.00781,4.6084s1.61377,2.29199,2.82617,2.98828c1.21143.69629,2.59766,1.04395,4.15771,1.04395,1.51221,0,2.88574-.35449,4.12207-1.0625,1.23584-.70703,2.20166-1.71582,2.89795-3.02344.6958-1.30859,1.04395-2.82617,1.04395-4.55469,0-1.70312-.354-3.20898-1.06152-4.51758Z" style="fill: #333;"/>
      <path d="m442.2207,379.06348c-.26465-.25195-.396-.59375-.396-1.02539,0-.4082.13135-.74414.396-1.00781.26367-.26367.58789-.39648.97168-.39648s.70801.13281.97217.39648c.26367.26367.396.59961.396,1.00781,0,.43164-.13232.77344-.396,1.02539-.26416.25293-.58838.37891-.97217.37891s-.70801-.12598-.97168-.37891Zm1.76367,4.73438v19.54785h-1.61963v-19.54785h1.61963Z" style="fill: #333;"/>
      <path d="m450.12207,388.22559c.80371-1.51172,1.91992-2.66895,3.34814-3.47363,1.42773-.80371,3.06543-1.20605,4.91406-1.20605,2.44775,0,4.45752.6123,6.02979,1.83594,1.57178,1.22363,2.5498,2.86816,2.93408,4.93164h-1.69189c-.3125-1.67871-1.12207-2.99902-2.43018-3.95996-1.30811-.95898-2.92188-1.43945-4.8418-1.43945-1.43994,0-2.74854.31836-3.92432.9541s-2.11816,1.6084-2.82568,2.91602c-.7085,1.30859-1.06201,2.89746-1.06201,4.76953,0,1.89648.35352,3.49219,1.06201,4.78809.70752,1.2959,1.6499,2.26855,2.82568,2.91602,1.17578.64844,2.48438.97168,3.92432.97168,1.91992,0,3.53369-.47949,4.8418-1.43945s2.11768-2.28027,2.43018-3.95996h1.69189c-.38428,2.04004-1.36816,3.68457-2.95215,4.93164-1.58398,1.24805-3.58789,1.87207-6.01172,1.87207-1.84863,0-3.48633-.40723-4.91406-1.22363-1.42822-.81543-2.54443-1.98535-3.34814-3.50977-.8042-1.52441-1.20605-3.30664-1.20605-5.34668,0-2.03906.40186-3.81543,1.20605-5.32812Z" style="fill: #333;"/>
    </g>
    <g style="participatory-text">
      <path d="m259.125,635.05859c-1.39258,1.23633-3.45605,1.85352-6.19238,1.85352h-5.40039v11.08789h-1.61914v-25.27148h7.01953c2.78418,0,4.86035.64258,6.22852,1.92578,1.36719,1.2832,2.05176,3.01758,2.05176,5.20117,0,2.23242-.69629,3.9668-2.08789,5.20312Zm.46777-5.20312c0-1.84766-.52832-3.25781-1.58398-4.22949-1.05664-.97168-2.74805-1.45801-5.07617-1.45801h-5.40039v11.30469h5.40039c4.43945,0,6.66016-1.87305,6.66016-5.61719Z" style="fill: #333;"/>
      <path d="m265.7666,632.91602c.80371-1.51172,1.91992-2.67578,3.34766-3.49219,1.42773-.81543,3.05371-1.22363,4.87793-1.22363,2.06445,0,3.81641.50391,5.25586,1.51172,1.44043,1.00879,2.44824,2.29199,3.02441,3.85254v-5.1123h1.62012v19.54785h-1.62012v-5.14844c-.57617,1.58398-1.58984,2.88672-3.04199,3.90625-1.45215,1.02051-3.19824,1.53027-5.23828,1.53027-1.82422,0-3.4502-.41406-4.87793-1.24219s-2.54395-2.00293-3.34766-3.52832c-.80469-1.52344-1.20605-3.29297-1.20605-5.30957s.40137-3.78027,1.20605-5.29199Zm15.44434.77344c-.70898-1.30664-1.6748-2.31543-2.89844-3.02344-1.22363-.70703-2.5918-1.0625-4.10449-1.0625-1.58398,0-2.97559.3418-4.17578,1.02637s-2.13574,1.6748-2.80762,2.96973c-.67188,1.29688-1.00781,2.83203-1.00781,4.6084s.33594,3.31152,1.00781,4.6084c.67188,1.29492,1.61328,2.29199,2.82617,2.98828,1.21094.69531,2.59766,1.04297,4.15723,1.04297,1.5127,0,2.88574-.35352,4.12207-1.06152s2.20215-1.71582,2.89844-3.02441c.69531-1.30762,1.04395-2.82617,1.04395-4.55371,0-1.7041-.35449-3.20996-1.06152-4.51855Z" style="fill: #333;"/>
      <path d="m293.97168,629.18945c1.22461-.75586,2.78418-1.13281,4.68066-1.13281v1.69141h-.54004c-1.9209,0-3.5166.5459-4.78809,1.63867-1.27246,1.0918-1.9082,2.87305-1.9082,5.3457v11.26758h-1.62012v-19.54785h1.62012v4.03223c.47949-1.44043,1.33203-2.53906,2.55566-3.29492Z" style="fill: #333;"/>
      <path d="m304.80762,629.85547v12.92383c0,1.44141.26367,2.43066.79199,2.9707.52734.54004,1.46387.81055,2.80762.81055h2.19629v1.43945h-2.44824c-1.7041,0-2.95801-.40234-3.76172-1.20605-.80469-.80371-1.20605-2.1416-1.20605-4.01465v-12.92383h-2.95215v-1.40332h2.95215v-4.96777h1.62012v4.96777h5.7959v1.40332h-5.7959Z" style="fill: #333;"/>
      <path d="m314.74316,623.71777c-.26465-.25195-.39551-.59375-.39551-1.02637,0-.40723.13086-.74316.39551-1.00781.26367-.26367.58789-.39551.97168-.39551s.70801.13184.97266.39551c.26367.26465.39551.60059.39551,1.00781,0,.43262-.13184.77441-.39551,1.02637-.26465.25293-.58887.37793-.97266.37793s-.70801-.125-.97168-.37793Zm1.76367,4.73438v19.54785h-1.61914v-19.54785h1.61914Z" style="fill: #333;"/>
      <path d="m322.64453,632.87988c.80371-1.51172,1.91992-2.66895,3.34863-3.47363,1.42773-.80469,3.06543-1.20605,4.91406-1.20605,2.44727,0,4.45703.6123,6.0293,1.83594s2.5498,2.86816,2.93457,4.93164h-1.69238c-.3125-1.67871-1.12207-2.99902-2.42969-3.95996-1.30859-.95898-2.92188-1.43945-4.8418-1.43945-1.44043,0-2.74902.31836-3.9248.95312-1.17578.63672-2.11816,1.60938-2.8252,2.91602-.70898,1.30859-1.0625,2.89844-1.0625,4.77051,0,1.89551.35352,3.49219,1.0625,4.78809.70703,1.2959,1.64941,2.26758,2.8252,2.91602s2.48438.97168,3.9248.97168c1.91992,0,3.5332-.47949,4.8418-1.44043,1.30762-.95898,2.11719-2.2793,2.42969-3.95898h1.69238c-.38477,2.04004-1.36816,3.68359-2.95215,4.93164s-3.58789,1.87207-6.01172,1.87207c-1.84863,0-3.48633-.40723-4.91406-1.22363-1.42871-.81641-2.54492-1.98633-3.34863-3.50977-.80371-1.52441-1.20605-3.30664-1.20605-5.34668s.40234-3.81543,1.20605-5.32812Z" style="fill: #333;"/>
      <path d="m344.6582,623.71777c-.26465-.25195-.39551-.59375-.39551-1.02637,0-.40723.13086-.74316.39551-1.00781.26367-.26367.58789-.39551.97168-.39551s.70801.13184.97266.39551c.26367.26465.39551.60059.39551,1.00781,0,.43262-.13184.77441-.39551,1.02637-.26465.25293-.58887.37793-.97266.37793s-.70801-.125-.97168-.37793Zm1.76367,4.73438v19.54785h-1.61914v-19.54785h1.61914Z" style="fill: #333;"/>
      <path d="m356.98828,629.71191c1.45117-1.00781,3.20898-1.51172,5.27344-1.51172,1.82422,0,3.4502.4082,4.87793,1.22363,1.42773.81641,2.54395,1.98047,3.34863,3.49219.80371,1.51172,1.20605,3.27539,1.20605,5.29199s-.40234,3.78613-1.20605,5.30957c-.80469,1.52539-1.9209,2.7002-3.34863,3.52832s-3.05371,1.24219-4.87793,1.24219c-2.04004,0-3.78613-.50977-5.23828-1.53027-1.45215-1.01953-2.46582-2.30957-3.04199-3.86914v14.32715h-1.61914v-28.76367h1.61914v5.14746c.55273-1.58398,1.55371-2.87891,3.00684-3.8877Zm12.04199,3.8877c-.67285-1.29492-1.61426-2.28516-2.82617-2.96973s-2.61035-1.02637-4.19434-1.02637c-1.51172,0-2.87988.35547-4.10352,1.0625-1.22461.70801-2.18457,1.7168-2.87988,3.02344-.69727,1.30859-1.04492,2.81445-1.04492,4.51855,0,1.72754.34766,3.24609,1.04492,4.55371.69531,1.30859,1.65527,2.31641,2.87988,3.02441,1.22363.70801,2.5918,1.06152,4.10352,1.06152,1.58398,0,2.98242-.34766,4.19434-1.04297,1.21191-.69629,2.15332-1.69336,2.82617-2.98828.6709-1.29688,1.00781-2.83203,1.00781-4.6084s-.33691-3.31152-1.00781-4.6084Z" style="fill: #333;"/>
      <path d="m376.78711,632.91602c.80371-1.51172,1.91992-2.67578,3.34863-3.49219,1.42773-.81543,3.05371-1.22363,4.87793-1.22363,2.06348,0,3.81543.50391,5.25586,1.51172,1.43945,1.00879,2.44824,2.29199,3.02344,3.85254v-5.1123h1.62012v19.54785h-1.62012v-5.14844c-.5752,1.58398-1.58984,2.88672-3.04199,3.90625-1.45215,1.02051-3.19824,1.53027-5.2373,1.53027-1.82422,0-3.4502-.41406-4.87793-1.24219-1.42871-.82812-2.54492-2.00293-3.34863-3.52832-.80371-1.52344-1.20605-3.29297-1.20605-5.30957s.40234-3.78027,1.20605-5.29199Zm15.44434.77344c-.70801-1.30664-1.67383-2.31543-2.89844-3.02344-1.22363-.70703-2.5918-1.0625-4.10352-1.0625-1.58398,0-2.97656.3418-4.17578,1.02637-1.2002.68457-2.13672,1.6748-2.80859,2.96973-.67188,1.29688-1.00781,2.83203-1.00781,4.6084s.33594,3.31152,1.00781,4.6084c.67188,1.29492,1.61426,2.29199,2.82617,2.98828,1.21191.69531,2.59766,1.04297,4.1582,1.04297,1.51172,0,2.88574-.35352,4.12207-1.06152,1.23535-.70801,2.20117-1.71582,2.89746-3.02441.69629-1.30762,1.04395-2.82617,1.04395-4.55371,0-1.7041-.35352-3.20996-1.06152-4.51855Z" style="fill: #333;"/>
      <path d="m403.22852,629.85547v12.92383c0,1.44141.26465,2.43066.79199,2.9707.52832.54004,1.46387.81055,2.80859.81055h2.19629v1.43945h-2.44824c-1.7041,0-2.95801-.40234-3.76172-1.20605-.80469-.80371-1.20605-2.1416-1.20605-4.01465v-12.92383h-2.95215v-1.40332h2.95215v-4.96777h1.61914v4.96777h5.79688v1.40332h-5.79688Z" style="fill: #333;"/>
      <path d="m416.98047,647.06445c-1.46387-.81641-2.60938-1.98633-3.4375-3.50977-.82812-1.52441-1.24219-3.30664-1.24219-5.34668,0-2.0166.41992-3.78613,1.25977-5.30957.83984-1.52441,1.99805-2.6875,3.47461-3.49219,1.47559-.80469,3.125-1.20605,4.94922-1.20605s3.46777.40137,4.93262,1.20605c1.46289.80469,2.60938,1.96191,3.4375,3.47363.82812,1.5127,1.24219,3.28809,1.24219,5.32812s-.41992,3.82227-1.25977,5.34668c-.84082,1.52344-1.99805,2.69336-3.47461,3.50977-1.47559.81641-3.12598,1.22363-4.94922,1.22363-1.82422,0-3.46875-.40723-4.93262-1.22363Zm8.91016-1.16992c1.23633-.63672,2.22559-1.60254,2.96973-2.89844s1.11621-2.89258,1.11621-4.78809c0-1.87207-.37207-3.45605-1.11621-4.75195s-1.72754-2.26172-2.95215-2.89746c-1.22363-.63672-2.54395-.95508-3.95996-.95508s-2.72949.31836-3.94141.95508c-1.21191.63574-2.19043,1.60156-2.93457,2.89746s-1.11523,2.87988-1.11523,4.75195c0,1.89551.36523,3.49219,1.09766,4.78809.73145,1.2959,1.7041,2.26172,2.91602,2.89844,1.21191.63574,2.52539.95312,3.94238.95312,1.41504,0,2.74121-.31738,3.97754-.95312Z" style="fill: #333;"/>
      <path d="m440.7041,629.18945c1.22461-.75586,2.78418-1.13281,4.68066-1.13281v1.69141h-.54004c-1.9209,0-3.5166.5459-4.78809,1.63867-1.27246,1.0918-1.9082,2.87305-1.9082,5.3457v11.26758h-1.62012v-19.54785h1.62012v4.03223c.47949-1.44043,1.33203-2.53906,2.55566-3.29492Z" style="fill: #333;"/>
      <path d="m464.3916,628.45215l-11.37598,28.72754h-1.65527l3.63574-9.17969-8.20801-19.54785h1.76367l7.34473,17.74805,6.83984-17.74805h1.65527Z" style="fill: #333;"/>
    </g>
    <g id="procedural-text">
      <path d="m421.16406,836.4043c-1.39209,1.23633-3.45605,1.85352-6.19189,1.85352h-5.40039v11.08789h-1.61963v-25.27148h7.02002c2.78369,0,4.85986.64258,6.22803,1.92578,1.36768,1.2832,2.05176,3.01758,2.05176,5.20117,0,2.23242-.69629,3.9668-2.08789,5.20312Zm.46777-5.20312c0-1.84766-.52783-3.25781-1.58398-4.22949s-2.74805-1.45801-5.07568-1.45801h-5.40039v11.30469h5.40039c4.43945,0,6.65967-1.87305,6.65967-5.61719Z" style="fill: #333;"/>
      <path d="m431.78369,830.53516c1.22412-.75586,2.78369-1.13281,4.68018-1.13281v1.69141h-.54004c-1.92041,0-3.51611.5459-4.78809,1.63867-1.27246,1.0918-1.9082,2.87305-1.9082,5.3457v11.26758h-1.61963v-19.54785h1.61963v4.03223c.47998-1.44043,1.33203-2.53906,2.55615-3.29492Z" style="fill: #333;"/>
      <path d="m443.87939,848.41016c-1.46436-.81641-2.60986-1.98633-3.43799-3.50977-.82812-1.52441-1.24219-3.30664-1.24219-5.34668,0-2.0166.41992-3.78613,1.26025-5.30957.83984-1.52441,1.99805-2.6875,3.47412-3.49219,1.47559-.80469,3.12549-1.20605,4.94971-1.20605,1.82373,0,3.46777.40137,4.93213,1.20605,1.46338.80469,2.60986,1.96191,3.43799,3.47363.82812,1.5127,1.24219,3.28809,1.24219,5.32812s-.42041,3.82227-1.26025,5.34668c-.84033,1.52344-1.99805,2.69336-3.47412,3.50977s-3.12646,1.22363-4.94971,1.22363c-1.82422,0-3.46875-.40723-4.93213-1.22363Zm8.91016-1.16992c1.23584-.63672,2.22559-1.60254,2.96973-2.89844.74365-1.2959,1.11621-2.89258,1.11621-4.78809,0-1.87207-.37256-3.45605-1.11621-4.75195-.74414-1.2959-1.72803-2.26172-2.95215-2.89746-1.22363-.63672-2.54395-.95508-3.95996-.95508s-2.72998.31836-3.94189.95508c-1.21191.63574-2.19043,1.60156-2.93408,2.89746-.74414,1.2959-1.11572,2.87988-1.11572,4.75195,0,1.89551.36572,3.49219,1.09814,4.78809.73145,1.2959,1.70361,2.26172,2.91553,2.89844,1.21191.63574,2.52588.95312,3.94238.95312,1.41553,0,2.7417-.31738,3.97803-.95312Z" style="fill: #333;"/>
      <path d="m463.625,834.22559c.80371-1.51172,1.91992-2.66895,3.34814-3.47363,1.42773-.80469,3.06543-1.20605,4.91406-1.20605,2.44775,0,4.45752.6123,6.02979,1.83594,1.57178,1.22363,2.5498,2.86816,2.93408,4.93164h-1.69189c-.3125-1.67871-1.12207-2.99902-2.43018-3.95996-1.30811-.95898-2.92188-1.43945-4.8418-1.43945-1.43994,0-2.74854.31836-3.92432.95312-1.17578.63672-2.11816,1.60938-2.82568,2.91602-.7085,1.30859-1.06201,2.89844-1.06201,4.77051,0,1.89551.35352,3.49219,1.06201,4.78809.70752,1.2959,1.6499,2.26758,2.82568,2.91602s2.48438.97168,3.92432.97168c1.91992,0,3.53369-.47949,4.8418-1.44043,1.30811-.95898,2.11768-2.2793,2.43018-3.95898h1.69189c-.38428,2.04004-1.36816,3.68359-2.95215,4.93164s-3.58789,1.87207-6.01172,1.87207c-1.84863,0-3.48633-.40723-4.91406-1.22363-1.42822-.81641-2.54443-1.98633-3.34814-3.50977-.8042-1.52441-1.20605-3.30664-1.20605-5.34668s.40186-3.81543,1.20605-5.32812Z" style="fill: #333;"/>
      <path d="m503.31445,840.20117h-16.88379c.04785,1.75293.43213,3.22852,1.15186,4.42871.72021,1.2002,1.66797,2.10059,2.84424,2.7002,1.17529.59961,2.45947.89941,3.85205.89941,1.91943,0,3.52783-.47363,4.82373-1.42188s2.11182-2.2373,2.44824-3.87012h1.69189c-.38428,1.99219-1.36816,3.60645-2.95215,4.8418-1.58398,1.23633-3.58838,1.85449-6.01172,1.85449-1.82422,0-3.45605-.40723-4.89648-1.22363-1.43994-.81641-2.56836-1.98633-3.38379-3.50977-.81592-1.52441-1.22412-3.30664-1.22412-5.34668s.40186-3.81543,1.20605-5.32812c.80371-1.51172,1.92627-2.66895,3.36621-3.47363s3.0835-1.20605,4.93213-1.20605c1.87158,0,3.49756.40137,4.87793,1.20605,1.37988.80469,2.42969,1.87109,3.1499,3.20312.71973,1.33203,1.08008,2.76758,1.08008,4.30273,0,.86328-.02441,1.51172-.07227,1.94336Zm-2.46582-5.72363c-.68408-1.2002-1.61426-2.09277-2.79004-2.68164-1.17627-.58789-2.44824-.88184-3.81592-.88184-1.36816,0-2.63428.29395-3.79834.88184-1.16406.58887-2.11182,1.48145-2.84375,2.68164-.73242,1.2002-1.12207,2.66406-1.16992,4.3916h15.33594c.07178-1.72754-.23389-3.19141-.91797-4.3916Z" style="fill: #333;"/>
      <path d="m508.48047,834.26172c.80371-1.51172,1.91992-2.67578,3.34814-3.49219,1.42773-.81543,3.05371-1.22363,4.87793-1.22363,1.9917,0,3.71973.49805,5.18408,1.49316,1.46338.99707,2.49561,2.28711,3.0957,3.87109v-12.20508h1.62012v26.64062h-1.62012v-5.18359c-.57568,1.60742-1.58398,2.92188-3.02393,3.94141-1.43994,1.02051-3.19189,1.53027-5.25586,1.53027-1.82422,0-3.4502-.41406-4.87793-1.24219-1.42822-.82812-2.54443-2.00293-3.34814-3.52832-.8042-1.52344-1.20605-3.29297-1.20605-5.30957s.40186-3.78027,1.20605-5.29199Zm15.44434.77344c-.7085-1.30664-1.67432-2.31543-2.89844-3.02344-1.22363-.70703-2.5918-1.0625-4.104-1.0625-1.58398,0-2.97607.3418-4.17578,1.02637-1.2002.68457-2.13623,1.6748-2.80811,2.96973-.67188,1.29688-1.00781,2.83203-1.00781,4.6084s.33594,3.31152,1.00781,4.6084c.67188,1.29492,1.61377,2.29199,2.82617,2.98828,1.21143.69531,2.59766,1.04297,4.15771,1.04297,1.51221,0,2.88574-.35352,4.12207-1.06152,1.23584-.70801,2.20166-1.71582,2.89795-3.02441.6958-1.30762,1.04395-2.82617,1.04395-4.55371,0-1.7041-.354-3.20996-1.06152-4.51855Z" style="fill: #333;"/>
      <path d="m549.03418,829.79785v19.54785h-1.62012v-4.24805c-.55225,1.48828-1.47021,2.62305-2.75391,3.40234-1.28418.7793-2.75391,1.16992-4.41016,1.16992-2.32812,0-4.22998-.71387-5.70605-2.14258-1.47607-1.42773-2.21387-3.54492-2.21387-6.35352v-11.37598h1.58398v11.26855c0,2.32812.58789,4.10938,1.76416,5.3457,1.17529,1.23633,2.77197,1.85352,4.78809,1.85352,2.11133,0,3.79785-.67188,5.05762-2.01562,1.26025-1.34375,1.89014-3.33594,1.89014-5.97656v-10.47559h1.62012Z" style="fill: #333;"/>
      <path d="m559.11328,830.53516c1.22412-.75586,2.78369-1.13281,4.68018-1.13281v1.69141h-.54004c-1.92041,0-3.51611.5459-4.78809,1.63867-1.27246,1.0918-1.9082,2.87305-1.9082,5.3457v11.26758h-1.61963v-19.54785h1.61963v4.03223c.47998-1.44043,1.33203-2.53906,2.55615-3.29492Z" style="fill: #333;"/>
      <path d="m567.73486,834.26172c.80371-1.51172,1.91992-2.67578,3.34814-3.49219,1.42773-.81543,3.05371-1.22363,4.87793-1.22363,2.06396,0,3.81592.50391,5.25586,1.51172,1.43994,1.00879,2.44824,2.29199,3.02393,3.85254v-5.1123h1.62012v19.54785h-1.62012v-5.14844c-.57568,1.58398-1.58984,2.88672-3.04199,3.90625-1.45215,1.02051-3.19824,1.53027-5.23779,1.53027-1.82422,0-3.4502-.41406-4.87793-1.24219-1.42822-.82812-2.54443-2.00293-3.34814-3.52832-.8042-1.52344-1.20605-3.29297-1.20605-5.30957s.40186-3.78027,1.20605-5.29199Zm15.44434.77344c-.7085-1.30664-1.67432-2.31543-2.89844-3.02344-1.22363-.70703-2.5918-1.0625-4.104-1.0625-1.58398,0-2.97607.3418-4.17578,1.02637-1.2002.68457-2.13623,1.6748-2.80811,2.96973-.67188,1.29688-1.00781,2.83203-1.00781,4.6084s.33594,3.31152,1.00781,4.6084c.67188,1.29492,1.61377,2.29199,2.82617,2.98828,1.21143.69531,2.59766,1.04297,4.15771,1.04297,1.51221,0,2.88574-.35352,4.12207-1.06152,1.23584-.70801,2.20166-1.71582,2.89795-3.02441.6958-1.30762,1.04395-2.82617,1.04395-4.55371,0-1.7041-.354-3.20996-1.06152-4.51855Z" style="fill: #333;"/>
      <path d="m593.38477,822.70508v26.64062h-1.61963v-26.64062h1.61963Z" style="fill: #333;"/>
    </g>
  </g>
</svg>