<?xml version="1.0" encoding="UTF-8"?>
<svg xmlns="http://www.w3.org/2000/svg" viewBox="0 0 500 500">
  <g style="isolation: isolate;">
    <g id="Layer_1" data-name="Layer 1">
      <g>
        <path d="m394.89539,141.33551c5.12128,8.07141,9.77783,16.41943,13.99365,25.06708,3.18762,9.01416,6.07538,18.15576,8.3797,27.46027,11.8425,46.52748,8.50732,96.19038-5.75951,141.80562-3.87068,8.81487-8.21833,17.37981-13.23927,25.50957,2.44122-9.24121,4.79279-18.38361,6.5639-27.61682,13.87803-44.39876,17.17238-92.7106,5.64312-138.00365-2.27075-9.04115-4.98925-17.98195-8.2348-26.74587-2.17603-9.15051-4.89386-18.22607-7.3468-27.4762h0Z" style="fill: #fff;"/>
        <path d="m101.77197,145.83496c-2.52185,9.23248-4.94458,18.35498-6.79559,27.5672-2.92828,8.8609-5.2627,17.91364-7.16187,27.04822-9.52415,45.70049-6.08783,93.95574,9.66077,137.8933,2.11278,9.15931,4.82073,18.20564,7.67126,27.33381-5.37946-7.90552-10.06378-16.30347-14.26379-24.9801-16.17851-45.13611-19.70755-94.71384-9.92364-141.6623,1.92077-9.393,4.41607-18.65954,7.28918-27.80499,3.91406-8.80811,8.33667-17.35138,13.52368-25.39514h0Z" style="fill: #fff;"/>
        <path d="m192.43567,83.36151c6.18066,13.71106,11.95697,27.55896,17.74475,41.40302,9.03024,26.80678,33.75349,99.84806,43.15584,127.61995,9.47905,28.00889,34.00951,100.48547,43.18894,127.60873,3.79127,14.51973,7.61152,29.02968,11.08106,43.65828-6.12799-13.72888-11.90527-27.57642-17.71161-41.41418-9.06825-26.79394-33.78936-99.83596-43.18897-127.60878-9.47644-28.00977-34.00447-100.48712-43.22211-127.59743-3.80981-14.51351-7.63104-29.02309-11.04791-43.66958h0Z" style="fill: #fff;"/>
        <path d="m101.77197,145.83496c-.37047,12.75698-.41231,25.56722.34637,38.28851-.53983,18.16563.68625,36.39212,3.20103,54.38421,8.34452,57.12197,32.44849,111.81082,69.10104,156.42059,7.19993,10.5332,15.08322,20.56911,23.26457,30.41049-10.17523-7.89652-19.7654-16.67877-28.68198-25.97718-37.45328-45.58491-62.08545-101.47362-70.61034-159.84499-2.61061-18.38561-3.73662-37.00188-3.3421-55.56737,1.31502-12.8654,3.48234-25.60865,6.72142-38.11425h0Z" style="fill: #fff;"/>
        <path d="m197.685,425.33875c2.96576-14.74438,6.33984-29.36444,9.70239-43.98798,8.28013-27.04791,30.74533-100.81499,39.28546-128.86404,8.61585-28.28634,30.90865-101.48216,39.25195-128.87417,5.37885-14.00948,10.7284-28.02785,16.43213-41.93831-3.01892,14.72821-6.39203,29.34851-9.73584,43.97778-8.24176,27.05963-30.70909,100.82606-39.25196,128.87429-8.61852,28.28554-30.91383,101.48059-39.21848,128.88437-5.36019,14.01515-10.7087,28.03383-16.46565,41.92805h0Z" style="fill: #fff;"/>
        <path d="m394.89539,141.33551c-1.98926,14.68781-4.97644,29.27271-8.75934,43.68115-9.59019,28.13371-21.57394,55.47626-36.20715,81.35975-29.14987,51.79753-68.20738,98.05949-114.39582,135.46913-12.19776,8.55351-24.80964,16.45445-37.84809,23.49321,11.48041-9.37347,22.7486-18.8606,33.44098-28.93158,11.36914-9.22968,22.31006-18.98657,32.77478-29.2301,41.81939-40.97699,75.90312-89.94781,99.62615-143.48102,5.93049-13.38726,11.29786-27.03149,15.90729-40.93102,5.69312-13.53906,10.63177-27.41168,15.46118-41.4295h0Z" style="fill: #fff;"/>
        <path d="m394.89539,141.33551c-11.17975,10.50116-22.62079,20.66473-34.05444,30.83789-22.83901,17.63253-85.03109,65.78861-108.67726,84.10055-23.84907,18.46486-85.56085,66.24711-108.6558,84.1282-12.72407,8.50654-25.42933,17.03736-38.36134,25.27534,11.21381-10.45715,22.65424-20.62152,34.07587-30.81018,22.81445-17.66425,85.00793-65.81859,108.65584-84.12825,23.85076-18.46267,85.56411-66.2429,108.63436-84.15587,12.71206-8.52203,25.41671-17.05365,38.38277-25.24768h0Z" style="fill: #fff;"/>
        <path d="m192.43567,83.36151c-9.38153,12.62085-17.67444,25.8537-24.76569,39.63184-8.03882,13.2041-14.78064,27.18628-20.29352,41.61658-22.41887,57.84404-20.78922,123.7276,2.80291,180.96379,5.09903,12.51441,11.17316,24.64548,18.28436,36.13622,8.86215,15.06675,18.0006,29.87581,29.22168,43.62854-17.66641-15.61588-33.59063-34.07821-43.99798-55.5131-29.34528-56.35188-37.60791-123.72244-20.24776-185.06067,10.55125-38.17318,29.3308-74.70001,58.996-101.4032h0Z" style="fill: #fff;"/>
        <path d="m398.26996,361.17804c-13.21143-7.79218-26.17194-15.92981-39.13959-24.05762-23.32214-16.98836-86.96582-63.20902-111.16622-80.78198-24.40397-17.72496-87.55419-63.58929-111.18667-80.75365-11.72902-9.83332-23.47603-19.64173-35.00551-29.74983,13.17877,7.83722,26.13989,15.974,39.11902,24.086,23.34575,16.95587,86.98809,63.17838,111.18678,80.75367,24.40238,17.7272,87.55109,63.59355,111.20725,80.72531,11.74055,9.81746,23.48816,19.62508,34.98493,29.7781h0Z" style="fill: #fff;"/>
        <path d="m302.35693,81.67426c30.47564,25.78866,50.35952,61.70596,62.08053,99.54497,19.23436,60.77699,13.04382,128.36803-14.55812,185.59475-9.74446,21.74241-25.09496,40.68809-42.2733,56.83739,10.79442-14.09391,19.47254-29.17174,27.8681-44.50542,6.75579-11.70296,12.45453-24.01533,17.16784-36.67997,21.82355-57.93308,21.43042-123.83678-2.7539-180.96456-5.95259-14.25435-13.12037-28.02302-21.56074-40.97413-7.5108-13.55402-16.20593-26.52606-25.9704-38.85303h0Z" style="fill: #fff;"/>
        <path d="m394.89539,141.33551c3.6213,12.40053,6.17884,25.07095,7.88813,37.89001.96407,18.54424.41025,37.1866-1.63492,55.64385-6.72972,58.60598-29.63443,115.22338-65.6713,161.93677-8.62709,9.56826-17.94253,18.63942-27.87103,26.84535,7.87507-10.08709,15.44709-20.36097,22.32046-31.11014,35.26569-45.71339,57.68029-101.11726,64.26711-158.46793,1.96142-18.06062,2.62766-36.31586,1.53051-54.45678.36784-12.73869-.06716-25.54092-.82896-38.28113h0Z" style="fill: #fff;"/>
        <path d="m101.77197,145.83496c5.25739,13.86298,10.61951,27.57751,16.72546,40.93542,5.03394,13.75146,10.8175,27.22455,17.15613,40.42352,25.35412,52.77886,60.92641,100.68251,103.98304,140.35558,10.77416,9.91755,22.00939,19.33405,33.65648,28.2104,10.9964,9.7381,22.55048,18.87488,34.31317,27.8916-13.24835-6.63531-26.09674-14.14545-38.55133-22.32043-47.31517-35.97491-87.77361-81.01541-118.4997-131.89434-15.4209-25.42214-28.23814-52.38384-38.68738-80.21003-4.22333-14.28552-7.65674-28.77191-10.09589-43.39173h0Z" style="fill: #fff;"/>
        <path d="m394.89539,141.33551c5.12128,8.07141,9.77783,16.41943,13.99365,25.06708,3.18762,9.01416,6.07538,18.15576,8.3797,27.46027,11.8425,46.52748,8.50732,96.19038-5.75951,141.80562-3.87068,8.81487-8.21833,17.37981-13.23927,25.50957,2.44122-9.24121,4.79279-18.38361,6.5639-27.61682,13.87803-44.39876,17.17238-92.7106,5.64312-138.00365-2.27075-9.04115-4.98925-17.98195-8.2348-26.74587-2.17603-9.15051-4.89386-18.22607-7.3468-27.4762h0Z" style="fill: #fff; opacity: .82;"/>
        <path d="m101.77197,145.83496c-2.52185,9.23248-4.94458,18.35498-6.79559,27.5672-2.92828,8.8609-5.2627,17.91364-7.16187,27.04822-9.52415,45.70049-6.08783,93.95574,9.66077,137.8933,2.11278,9.15931,4.82073,18.20564,7.67126,27.33381-5.37946-7.90552-10.06378-16.30347-14.26379-24.9801-16.17851-45.13611-19.70755-94.71384-9.92364-141.6623,1.92077-9.393,4.41607-18.65954,7.28918-27.80499,3.91406-8.80811,8.33667-17.35138,13.52368-25.39514h0Z" style="fill: #fff; opacity: .82;"/>
        <path d="m192.43567,83.36151c6.18066,13.71106,11.95697,27.55896,17.74475,41.40302,9.03024,26.80678,33.75349,99.84806,43.15584,127.61995,9.47905,28.00889,34.00951,100.48547,43.18894,127.60873,3.79127,14.51973,7.61152,29.02968,11.08106,43.65828-6.12799-13.72888-11.90527-27.57642-17.71161-41.41418-9.06825-26.79394-33.78936-99.83596-43.18897-127.60878-9.47644-28.00977-34.00447-100.48712-43.22211-127.59743-3.80981-14.51351-7.63104-29.02309-11.04791-43.66958h0Z" style="fill: #fff; opacity: .82;"/>
        <path d="m101.77197,145.83496c-.37047,12.75698-.41231,25.56722.34637,38.28851-.53983,18.16563.68625,36.39212,3.20103,54.38421,8.34452,57.12197,32.44849,111.81082,69.10104,156.42059,7.19993,10.5332,15.08322,20.56911,23.26457,30.41049-10.17523-7.89652-19.7654-16.67877-28.68198-25.97718-37.45328-45.58491-62.08545-101.47362-70.61034-159.84499-2.61061-18.38561-3.73662-37.00188-3.3421-55.56737,1.31502-12.8654,3.48234-25.60865,6.72142-38.11425h0Z" style="fill: #fff; opacity: .82;"/>
        <path d="m197.685,425.33875c2.96576-14.74438,6.33984-29.36444,9.70239-43.98798,8.28013-27.04791,30.74533-100.81499,39.28546-128.86404,8.61585-28.28634,30.90865-101.48216,39.25195-128.87417,5.37885-14.00948,10.7284-28.02785,16.43213-41.93831-3.01892,14.72821-6.39203,29.34851-9.73584,43.97778-8.24176,27.05963-30.70909,100.82606-39.25196,128.87429-8.61852,28.28554-30.91383,101.48059-39.21848,128.88437-5.36019,14.01515-10.7087,28.03383-16.46565,41.92805h0Z" style="fill: #fff; opacity: .82;"/>
        <path d="m394.89539,141.33551c-1.98926,14.68781-4.97644,29.27271-8.75934,43.68115-9.59019,28.13371-21.57394,55.47626-36.20715,81.35975-29.14987,51.79753-68.20738,98.05949-114.39582,135.46913-12.19776,8.55351-24.80964,16.45445-37.84809,23.49321,11.48041-9.37347,22.7486-18.8606,33.44098-28.93158,11.36914-9.22968,22.31006-18.98657,32.77478-29.2301,41.81939-40.97699,75.90312-89.94781,99.62615-143.48102,5.93049-13.38726,11.29786-27.03149,15.90729-40.93102,5.69312-13.53906,10.63177-27.41168,15.46118-41.4295h0Z" style="fill: #fff; opacity: .82;"/>
        <path d="m105.14655,365.67749c1.98932-14.68781,4.97644-29.27271,8.75934-43.68115,9.59015-28.13376,21.574-55.47615,36.20715-81.35975,29.14987-51.79747,68.20743-98.05941,114.39582-135.46913,12.19776-8.55345,24.80964-16.45445,37.84809-23.49321-11.48041,9.37347-22.7486,18.8606-33.44098,28.93164-11.36914,9.22968-22.31006,18.98657-32.77478,29.23004-41.8193,40.97705-75.90311,89.94782-99.62615,143.48102-5.93049,13.38726-11.29786,27.03155-15.90729,40.93108-5.69312,13.539-10.63177,27.41162-15.46118,41.42944h0Z" style="fill: #fff; opacity: .82;"/>
        <path d="m394.89539,141.33551c-11.17975,10.50116-22.62079,20.66473-34.05444,30.83789-22.83901,17.63253-85.03109,65.78861-108.67726,84.10055-23.84907,18.46486-85.56085,66.24711-108.6558,84.1282-12.72407,8.50654-25.42933,17.03736-38.36134,25.27534,11.21381-10.45715,22.65424-20.62152,34.07587-30.81018,22.81445-17.66425,85.00793-65.81859,108.65584-84.12825,23.85076-18.46267,85.56411-66.2429,108.63436-84.15587,12.71206-8.52203,25.41671-17.05365,38.38277-25.24768h0Z" style="fill: #fff; opacity: .82;"/>
        <path d="m192.43567,83.36151c-9.38153,12.62085-17.67444,25.8537-24.76569,39.63184-8.03882,13.2041-14.78064,27.18628-20.29352,41.61658-22.41887,57.84404-20.78922,123.7276,2.80291,180.96379,5.09903,12.51441,11.17316,24.64548,18.28436,36.13622,8.86215,15.06675,18.0006,29.87581,29.22168,43.62854-17.66641-15.61588-33.59063-34.07821-43.99798-55.5131-29.34528-56.35188-37.60791-123.72244-20.24776-185.06067,10.55125-38.17318,29.3308-74.70001,58.996-101.4032h0Z" style="fill: #fff; opacity: .82;"/>
        <path d="m398.26996,361.17804c-13.21143-7.79218-26.17194-15.92981-39.13959-24.05762-23.32214-16.98836-86.96582-63.20902-111.16622-80.78198-24.40397-17.72496-87.55419-63.58929-111.18667-80.75365-11.72902-9.83332-23.47603-19.64173-35.00551-29.74983,13.17877,7.83722,26.13989,15.974,39.11902,24.086,23.34575,16.95587,86.98809,63.17838,111.18678,80.75367,24.40238,17.7272,87.55109,63.59355,111.20725,80.72531,11.74055,9.81746,23.48816,19.62508,34.98493,29.7781h0Z" style="fill: #fff; opacity: .82;"/>
        <path d="m302.35693,81.67426c30.47564,25.78866,50.35952,61.70596,62.08053,99.54497,19.23436,60.77699,13.04382,128.36803-14.55812,185.59475-9.74446,21.74241-25.09496,40.68809-42.2733,56.83739,10.79442-14.09391,19.47254-29.17174,27.8681-44.50542,6.75579-11.70296,12.45453-24.01533,17.16784-36.67997,21.82355-57.93308,21.43042-123.83678-2.7539-180.96456-5.95259-14.25435-13.12037-28.02302-21.56074-40.97413-7.5108-13.55402-16.20593-26.52606-25.9704-38.85303h0Z" style="fill: #fff; opacity: .82;"/>
        <path d="m398.26996,361.17804c.37053-12.75687.41233-25.56723-.34637-38.28845.5398-18.16564-.6862-36.39218-3.20103-54.38427-8.34445-57.12203-32.44846-111.81074-69.10104-156.42059-7.19986-10.53315-15.08321-20.56913-23.26457-30.41049,10.17528,7.89653,19.76539,16.67878,28.68198,25.97718,37.45324,45.58495,62.08548,101.47361,70.61034,159.84499,2.61065,18.38563,3.73659,37.00187,3.3421,55.56743-1.31499,12.86542-3.48234,25.60865-6.72142,38.11419h0Z" style="fill: #fff; opacity: .82;"/>
        <path d="m394.89539,141.33551c3.6213,12.40053,6.17884,25.07095,7.88813,37.89001.96407,18.54424.41025,37.1866-1.63492,55.64385-6.72972,58.60598-29.63443,115.22338-65.6713,161.93677-8.62709,9.56826-17.94253,18.63942-27.87103,26.84535,7.87507-10.08709,15.44709-20.36097,22.32046-31.11014,35.26569-45.71339,57.68029-101.11726,64.26711-158.46793,1.96142-18.06062,2.62766-36.31586,1.53051-54.45678.36784-12.73869-.06716-25.54092-.82896-38.28113h0Z" style="fill: #fff; opacity: .82;"/>
        <path d="m105.14655,365.67749c-3.62133-12.40054-6.17883-25.07094-7.88813-37.89001-.96407-18.54425-.41025-37.18658,1.63492-55.64385,6.72975-58.60606,29.63444-115.22332,65.6713-161.93677,8.62711-9.56821,17.94253-18.63943,27.87103-26.84535-7.87507,10.08713-15.44709,20.36101-22.32046,31.11014-35.2656,45.71337-57.68027,101.11724-64.26711,158.46793-1.96142,18.06066-2.62766,36.31594-1.53051,54.45684-.36784,12.7387.06716,25.54091.82896,38.28107h0Z" style="fill: #fff; opacity: .82;"/>
        <path d="m398.26996,361.17804c-5.25739-13.86298-10.61951-27.57745-16.72546-40.93536-5.03394-13.75153-10.8175-27.22461-17.15613-40.42358-25.35411-52.77886-60.92648-100.68246-103.98304-140.35558-10.77416-9.91749-22.00939-19.33399-33.65648-28.21034-10.9964-9.7381-22.55048-18.87494-34.31317-27.89166,13.24835,6.63531,26.09674,14.14545,38.55133,22.3205,47.31526,35.97476,87.77357,81.01552,118.49976,131.89428,15.42083,25.42225,28.23808,52.38383,38.68731,80.21009,4.22333,14.28552,7.65674,28.77185,10.09589,43.39166h0Z" style="fill: #fff; opacity: .82;"/>
        <path d="m101.77197,145.83496c5.25739,13.86298,10.61951,27.57751,16.72546,40.93542,5.03394,13.75146,10.8175,27.22455,17.15613,40.42352,25.35412,52.77886,60.92641,100.68251,103.98304,140.35558,10.77416,9.91755,22.00939,19.33405,33.65648,28.2104,10.9964,9.7381,22.55048,18.87488,34.31317,27.8916-13.24835-6.63531-26.09674-14.14545-38.55133-22.32043-47.31517-35.97491-87.77361-81.01541-118.4997-131.89434-15.4209-25.42214-28.23814-52.38384-38.68738-80.21003-4.22333-14.28552-7.65674-28.77191-10.09589-43.39173h0Z" style="fill: #fff; opacity: .82;"/>
        <g>
          <g>
            <circle cx="302.35693" cy="81.67423" r="9.16118" style="fill: #fff;"/>
            <path d="m302.3598,75.513c3.34393,0,6.10626,2.7215,6.15759,6.06665.05212,3.39691-2.66901,6.20294-6.06555,6.25507l-.09766.00073c-3.34406,0-6.10638-2.7215-6.15771-6.06665-.05212-3.39691,2.66901-6.20288,6.06561-6.25507l.09772-.00073m-.00006-3c-.04773,0-.09558.00037-.14343.0011-5.05896.0777-9.09711,4.24176-9.01947,9.30072.0769,5.01117,4.16321,9.02063,9.15735,9.02063.04767,0,.09552-.00037.14337-.0011,5.05896-.07764,9.09711-4.24176,9.01947-9.30072-.0769-5.01111-4.16321-9.02069-9.15729-9.02063h0Z" style="fill: #fff;"/>
          </g>
          <g>
            <circle cx="394.89537" cy="141.33553" r="9.16118" style="fill: #fff;"/>
            <path d="m394.89825,135.17432c3.34393,0,6.10626,2.7215,6.15759,6.06665.05212,3.39691-2.66907,6.20288-6.06567,6.25507l-.09766.00073c-3.34393,0-6.10626-2.7215-6.15759-6.06671-.02527-1.64551.5918-3.20233,1.73749-4.38379,1.14569-1.1814,2.68286-1.84595,4.32812-1.87122l.09772-.00073m-.00006-3c-.04773,0-.09558.00037-.14343.0011-5.05896.07764-9.09717,4.24176-9.01947,9.30072.0769,5.01111,4.16321,9.02063,9.15729,9.02063.04767,0,.09552-.00037.14337-.0011,5.05902-.0777,9.09717-4.24176,9.01953-9.30072-.0769-5.01117-4.16327-9.02069-9.15729-9.02063h0Z" style="fill: #fff;"/>
          </g>
          <g>
            <circle cx="101.772" cy="145.83496" r="9.16118" style="fill: #fff;"/>
            <path d="m101.7749,139.67377c3.34393,0,6.1062,2.7215,6.15759,6.06659.05212,3.39691-2.66907,6.20294-6.06561,6.25507l-.09778.00073c-3.34393,0-6.1062-2.7215-6.15759-6.06659-.05212-3.39691,2.66907-6.20294,6.06567-6.25507l.09772-.00073m-.00012-3c-.04767,0-.09552.00037-.14337.0011-5.05902.07764-9.09717,4.2417-9.01953,9.30072.07697,5.01111,4.16315,9.02057,9.15723,9.02057.04767,0,.09564-.00037.14349-.0011,5.05902-.07764,9.09717-4.2417,9.01953-9.30072-.07697-5.01111-4.16327-9.02063-9.15735-9.02057h0Z" style="fill: #fff;"/>
          </g>
          <g>
            <circle cx="192.43567" cy="83.36152" r="9.16118" style="fill: #fff;"/>
            <path d="m192.43854,77.20032c3.34393,0,6.10626,2.72144,6.15759,6.06659.05212,3.39691-2.66901,6.20294-6.06622,6.25507l-.09711.00073c-3.34399,0-6.10626-2.7215-6.15759-6.06659-.05212-3.39691,2.66901-6.20294,6.06561-6.25507l.09772-.00073m-.00006-3c-.04773,0-.09558.00037-.14343.0011-5.05896.07764-9.09711,4.2417-9.01947,9.30072.0769,5.01111,4.16309,9.02057,9.15723,9.02057.04767,0,.09564-.00037.14349-.0011,5.05896-.07764,9.09711-4.2417,9.01947-9.30072-.0769-5.01111-4.16321-9.02063-9.15729-9.02057h0Z" style="fill: #fff;"/>
          </g>
        </g>
        <g>
          <g>
            <circle cx="307.60627" cy="423.65151" r="9.16118" style="fill: #fff;"/>
            <path d="m307.60901,417.4903c3.34406,0,6.10638,2.72144,6.15771,6.06659.02527,1.64551-.5918,3.20239-1.73749,4.38391-1.14569,1.1814-2.68292,1.84595-4.32843,1.87122l-.09735.00073c-3.34399,0-6.10632-2.72144-6.15765-6.06665-.05212-3.39691,2.66901-6.20294,6.06592-6.25507l.09729-.00073m0-3c-.04797,0-.09521.00037-.14337.0011-5.05896.07764-9.09711,4.24176-9.01947,9.30072.0769,5.01074,4.16364,9.02063,9.15735,9.02063.04797,0,.09521-.00037.14337-.0011,5.05896-.07764,9.09717-4.24182,9.01947-9.30078-.0769-5.0108-4.16364-9.02057-9.15735-9.02057h0Z" style="fill: #fff;"/>
          </g>
          <g>
            <circle cx="398.26995" cy="361.17806" r="9.16118" style="fill: #fff;"/>
            <path d="m398.27277,355.01685c3.34399,0,6.10632,2.7215,6.15765,6.06665.05212,3.39691-2.66907,6.20288-6.06598,6.25507l-.09729.00073c-3.34399,0-6.10632-2.7215-6.15765-6.06671-.02527-1.64551.5918-3.20233,1.73749-4.38373,1.14569-1.18146,2.68292-1.84601,4.32843-1.87128l.09735-.00073m0-3c-.04803,0-.09528.00037-.14343.0011-5.05896.0777-9.09717,4.24176-9.01947,9.30072.0769,5.01086,4.16364,9.02063,9.15729,9.02063.04797,0,.09521-.00037.14337-.0011,5.05902-.0777,9.09717-4.24176,9.01953-9.30072-.0769-5.01086-4.16364-9.02063-9.15729-9.02063h0Z" style="fill: #fff;"/>
          </g>
          <g>
            <circle cx="105.14657" cy="365.6775" r="9.16118" style="fill: #fff;"/>
            <path d="m105.14941,359.5163c3.34393,0,6.10626,2.7215,6.15765,6.06659.05212,3.39691-2.66907,6.20294-6.06598,6.25507l-.09741.00073c-3.34393,0-6.1062-2.7215-6.15759-6.06659-.05212-3.39691,2.66907-6.20294,6.06598-6.25507l.09735-.00073m0-3c-.04803,0-.09528.00037-.14343.0011-5.05902.07764-9.09717,4.2417-9.01953,9.30072.07697,5.0108,4.16357,9.02057,9.15723,9.02057.04797,0,.09534-.00037.14349-.0011,5.05902-.07764,9.09717-4.2417,9.01953-9.30072-.07697-5.0108-4.1637-9.02057-9.15729-9.02057h0Z" style="fill: #fff;"/>
          </g>
          <g>
            <circle cx="197.68501" cy="425.33879" r="9.16118" style="fill: #fff;"/>
            <path d="m197.68787,419.17761c3.34399,0,6.10626,2.72144,6.15759,6.06665.02527,1.64551-.5918,3.20239-1.73749,4.38379s-2.68286,1.84595-4.32843,1.87122l-.09735.00073c-3.34399,0-6.10632-2.72144-6.15765-6.06665-.02521-1.64551.5918-3.20239,1.73749-4.38379s2.68286-1.84595,4.32843-1.87122l.09741-.00073m0-3c-.04797,0-.09534.00037-.14349.0011-5.05896.07764-9.09711,4.2417-9.01947,9.30066.0769,5.01074,4.16364,9.02063,9.15735,9.02063.04797,0,.09521-.00037.14337-.0011,5.05896-.07764,9.09717-4.2417,9.01947-9.30066-.0769-5.01086-4.16351-9.02063-9.15723-9.02063h0Z" style="fill: #fff;"/>
          </g>
        </g>
      </g>
      <g>
        <path d="m394.89539,141.33551c5.12128,8.07141,9.77783,16.41943,13.99365,25.06708,3.18762,9.01416,6.07538,18.15576,8.3797,27.46027,11.8425,46.52748,8.50732,96.19038-5.75951,141.80562-3.87068,8.81487-8.21833,17.37981-13.23927,25.50957,2.44122-9.24121,4.79279-18.38361,6.5639-27.61682,13.87803-44.39876,17.17238-92.7106,5.64312-138.00365-2.27075-9.04115-4.98925-17.98195-8.2348-26.74587-2.17603-9.15051-4.89386-18.22607-7.3468-27.4762h0Z" style="fill: #248da3; mix-blend-mode: luminosity;"/>
        <path d="m101.77197,145.83496c-2.52185,9.23248-4.94458,18.35498-6.79559,27.5672-2.92828,8.8609-5.2627,17.91364-7.16187,27.04822-9.52415,45.70049-6.08783,93.95574,9.66077,137.8933,2.11278,9.15931,4.82073,18.20564,7.67126,27.33381-5.37946-7.90552-10.06378-16.30347-14.26379-24.9801-16.17851-45.13611-19.70755-94.71384-9.92364-141.6623,1.92077-9.393,4.41607-18.65954,7.28918-27.80499,3.91406-8.80811,8.33667-17.35138,13.52368-25.39514h0Z" style="fill: #82ff89; mix-blend-mode: luminosity;"/>
        <path d="m192.43567,83.36151c6.18066,13.71106,11.95697,27.55896,17.74475,41.40302,9.03024,26.80678,33.75349,99.84806,43.15584,127.61995,9.47905,28.00889,34.00951,100.48547,43.18894,127.60873,3.79127,14.51973,7.61152,29.02968,11.08106,43.65828-6.12799-13.72888-11.90527-27.57642-17.71161-41.41418-9.06825-26.79394-33.78936-99.83596-43.18897-127.60878-9.47644-28.00977-34.00447-100.48712-43.22211-127.59743-3.80981-14.51351-7.63104-29.02309-11.04791-43.66958h0Z" style="fill: #f2d418; mix-blend-mode: luminosity;"/>
        <path d="m101.77197,145.83496c-.37047,12.75698-.41231,25.56722.34637,38.28851-.53983,18.16563.68625,36.39212,3.20103,54.38421,8.34452,57.12197,32.44849,111.81082,69.10104,156.42059,7.19993,10.5332,15.08322,20.56911,23.26457,30.41049-10.17523-7.89652-19.7654-16.67877-28.68198-25.97718-37.45328-45.58491-62.08545-101.47362-70.61034-159.84499-2.61061-18.38561-3.73662-37.00188-3.3421-55.56737,1.31502-12.8654,3.48234-25.60865,6.72142-38.11425h0Z" style="fill: #ffb5b5; mix-blend-mode: luminosity;"/>
        <path d="m197.685,425.33875c2.96576-14.74438,6.33984-29.36444,9.70239-43.98798,8.28013-27.04791,30.74533-100.81499,39.28546-128.86404,8.61585-28.28634,30.90865-101.48216,39.25195-128.87417,5.37885-14.00948,10.7284-28.02785,16.43213-41.93831-3.01892,14.72821-6.39203,29.34851-9.73584,43.97778-8.24176,27.05963-30.70909,100.82606-39.25196,128.87429-8.61852,28.28554-30.91383,101.48059-39.21848,128.88437-5.36019,14.01515-10.7087,28.03383-16.46565,41.92805h0Z" style="fill: #e86f6f; mix-blend-mode: luminosity;"/>
        <path d="m394.89539,141.33551c-1.98926,14.68781-4.97644,29.27271-8.75934,43.68115-9.59019,28.13371-21.57394,55.47626-36.20715,81.35975-29.14987,51.79753-68.20738,98.05949-114.39582,135.46913-12.19776,8.55351-24.80964,16.45445-37.84809,23.49321,11.48041-9.37347,22.7486-18.8606,33.44098-28.93158,11.36914-9.22968,22.31006-18.98657,32.77478-29.2301,41.81939-40.97699,75.90312-89.94781,99.62615-143.48102,5.93049-13.38726,11.29786-27.03149,15.90729-40.93102,5.69312-13.53906,10.63177-27.41168,15.46118-41.4295h0Z" style="fill: #d45b5b; mix-blend-mode: luminosity;"/>
        <path d="m394.89539,141.33551c-11.17975,10.50116-22.62079,20.66473-34.05444,30.83789-22.83901,17.63253-85.03109,65.78861-108.67726,84.10055-23.84907,18.46486-85.56085,66.24711-108.6558,84.1282-12.72407,8.50654-25.42933,17.03736-38.36134,25.27534,11.21381-10.45715,22.65424-20.62152,34.07587-30.81018,22.81445-17.66425,85.00793-65.81859,108.65584-84.12825,23.85076-18.46267,85.56411-66.2429,108.63436-84.15587,12.71206-8.52203,25.41671-17.05365,38.38277-25.24768h0Z" style="fill: #2e8f31; mix-blend-mode: luminosity;"/>
        <path d="m192.43567,83.36151c-9.38153,12.62085-17.67444,25.8537-24.76569,39.63184-8.03882,13.2041-14.78064,27.18628-20.29352,41.61658-22.41887,57.84404-20.78922,123.7276,2.80291,180.96379,5.09903,12.51441,11.17316,24.64548,18.28436,36.13622,8.86215,15.06675,18.0006,29.87581,29.22168,43.62854-17.66641-15.61588-33.59063-34.07821-43.99798-55.5131-29.34528-56.35188-37.60791-123.72244-20.24776-185.06067,10.55125-38.17318,29.3308-74.70001,58.996-101.4032h0Z" style="fill: #f09a9a; mix-blend-mode: luminosity;"/>
        <path d="m398.26996,361.17804c-13.21143-7.79218-26.17194-15.92981-39.13959-24.05762-23.32214-16.98836-86.96582-63.20902-111.16622-80.78198-24.40397-17.72496-87.55419-63.58929-111.18667-80.75365-11.72902-9.83332-23.47603-19.64173-35.00551-29.74983,13.17877,7.83722,26.13989,15.974,39.11902,24.086,23.34575,16.95587,86.98809,63.17838,111.18678,80.75367,24.40238,17.7272,87.55109,63.59355,111.20725,80.72531,11.74055,9.81746,23.48816,19.62508,34.98493,29.7781h0Z" style="fill: #a3efff; mix-blend-mode: luminosity;"/>
        <path d="m302.35693,81.67426c30.47564,25.78866,50.35952,61.70596,62.08053,99.54497,19.23436,60.77699,13.04382,128.36803-14.55812,185.59475-9.74446,21.74241-25.09496,40.68809-42.2733,56.83739,10.79442-14.09391,19.47254-29.17174,27.8681-44.50542,6.75579-11.70296,12.45453-24.01533,17.16784-36.67997,21.82355-57.93308,21.43042-123.83678-2.7539-180.96456-5.95259-14.25435-13.12037-28.02302-21.56074-40.97413-7.5108-13.55402-16.20593-26.52606-25.9704-38.85303h0Z" style="fill: #d9bc09; mix-blend-mode: luminosity;"/>
        <path d="m394.89539,141.33551c3.6213,12.40053,6.17884,25.07095,7.88813,37.89001.96407,18.54424.41025,37.1866-1.63492,55.64385-6.72972,58.60598-29.63443,115.22338-65.6713,161.93677-8.62709,9.56826-17.94253,18.63942-27.87103,26.84535,7.87507-10.08709,15.44709-20.36097,22.32046-31.11014,35.26569-45.71339,57.68029-101.11726,64.26711-158.46793,1.96142-18.06062,2.62766-36.31586,1.53051-54.45678.36784-12.73869-.06716-25.54092-.82896-38.28113h0Z" style="fill: #c2a700; mix-blend-mode: luminosity;"/>
        <path d="m101.77197,145.83496c5.25739,13.86298,10.61951,27.57751,16.72546,40.93542,5.03394,13.75146,10.8175,27.22455,17.15613,40.42352,25.35412,52.77886,60.92641,100.68251,103.98304,140.35558,10.77416,9.91755,22.00939,19.33405,33.65648,28.2104,10.9964,9.7381,22.55048,18.87488,34.31317,27.8916-13.24835-6.63531-26.09674-14.14545-38.55133-22.32043-47.31517-35.97491-87.77361-81.01541-118.4997-131.89434-15.4209-25.42214-28.23814-52.38384-38.68738-80.21003-4.22333-14.28552-7.65674-28.77191-10.09589-43.39173h0Z" style="fill: #ffe333; mix-blend-mode: luminosity;"/>
        <path d="m394.89539,141.33551c5.12128,8.07141,9.77783,16.41943,13.99365,25.06708,3.18762,9.01416,6.07538,18.15576,8.3797,27.46027,11.8425,46.52748,8.50732,96.19038-5.75951,141.80562-3.87068,8.81487-8.21833,17.37981-13.23927,25.50957,2.44122-9.24121,4.79279-18.38361,6.5639-27.61682,13.87803-44.39876,17.17238-92.7106,5.64312-138.00365-2.27075-9.04115-4.98925-17.98195-8.2348-26.74587-2.17603-9.15051-4.89386-18.22607-7.3468-27.4762h0Z" style="fill: #248da3; mix-blend-mode: luminosity; opacity: .82;"/>
        <path d="m101.77197,145.83496c-2.52185,9.23248-4.94458,18.35498-6.79559,27.5672-2.92828,8.8609-5.2627,17.91364-7.16187,27.04822-9.52415,45.70049-6.08783,93.95574,9.66077,137.8933,2.11278,9.15931,4.82073,18.20564,7.67126,27.33381-5.37946-7.90552-10.06378-16.30347-14.26379-24.9801-16.17851-45.13611-19.70755-94.71384-9.92364-141.6623,1.92077-9.393,4.41607-18.65954,7.28918-27.80499,3.91406-8.80811,8.33667-17.35138,13.52368-25.39514h0Z" style="fill: #82ff89; mix-blend-mode: luminosity; opacity: .82;"/>
        <path d="m307.60999,423.6499c-6.12994-13.72992-11.90997-27.56995-17.71997-41.40991-8.09003-23.94-28.69-84.78998-39.69-117.28998-1.31-3.88-2.48999-7.36005-3.48999-10.32001-.12-.35004-.23999-.71002-.35999-1.07001-9.73004-28.73999-33.77002-99.76001-42.87-126.53003-3.81-14.51001-7.63-29.01996-11.04004-43.66998,6.17999,13.71002,11.95001,27.56,17.73999,41.40002,8.07001,23.94995,28.65002,84.77997,39.67004,117.28998,1.31,3.89001,2.48999,7.37,3.48999,10.33002.12.34998.23999.69995.35999,1.06,9.72003,28.72998,33.76001,99.76996,42.83002,126.54999,3.78998,14.52002,7.60999,29.02997,11.07996,43.65991Z" style="fill: #f2d418; mix-blend-mode: luminosity; opacity: .82;"/>
        <path d="m101.77197,145.83496c-.37047,12.75698-.41231,25.56722.34637,38.28851-.53983,18.16563.68625,36.39212,3.20103,54.38421,8.34452,57.12197,32.44849,111.81082,69.10104,156.42059,7.19993,10.5332,15.08322,20.56911,23.26457,30.41049-10.17523-7.89652-19.7654-16.67877-28.68198-25.97718-37.45328-45.58491-62.08545-101.47362-70.61034-159.84499-2.61061-18.38561-3.73662-37.00188-3.3421-55.56737,1.31502-12.8654,3.48234-25.60865,6.72142-38.11425h0Z" style="fill: #ffb5b5; mix-blend-mode: luminosity; opacity: .82;"/>
        <path d="m302.35999,81.66998c-3.01996,14.72998-6.39996,29.34998-9.73999,43.97998-8.13995,26.72003-30.13995,98.97003-38.91998,127.79004-.12-.36005-.23999-.71002-.35999-1.06-1-2.96002-2.17999-6.44-3.48999-10.33002,10.01996-32.90002,28.62-93.96002,36.07001-118.44,5.37994-14.01001,10.72998-28.03003,16.43994-41.94Z" style="fill: #e86f6f; mix-blend-mode: luminosity; opacity: .82;"/>
        <path d="m253.70001,253.44c-.10999.37-.21997.72998-.33002,1.08997-.91998,3-1.97998,6.51001-3.16998,10.42004-6.92999,22.71997-17.94,58.87994-26.53998,87.14996-.79004,2.60999-1.56,5.14001-2.31,7.59003-2.88,9.47998-5.38,17.70001-7.20001,23.71997-5.35999,14.02002-10.71002,28.03003-16.47003,41.92999,2.97003-14.75,6.34003-29.37,9.71002-43.98999,2.04999-6.70996,4.97998-16.29999,8.34998-27.33997.76001-2.49005,1.54004-5.05005,2.34003-7.67004,9.77997-32.06,22.19-72.82996,28.27002-92.77997.10999-.35999.20996-.72003.32001-1.07001.91998-3.01001,1.98999-6.53003,3.17999-10.44,1.31,3.89001,2.48999,7.37,3.48999,10.33002.12.34998.23999.69995.35999,1.06Z" style="fill: #e86f6f; mix-blend-mode: luminosity; opacity: .82;"/>
        <path d="m394.89539,141.33551c-1.98926,14.68781-4.97644,29.27271-8.75934,43.68115-9.59019,28.13371-21.57394,55.47626-36.20715,81.35975-29.14987,51.79753-68.20738,98.05949-114.39582,135.46913-12.19776,8.55351-24.80964,16.45445-37.84809,23.49321,11.48041-9.37347,22.7486-18.8606,33.44098-28.93158,11.36914-9.22968,22.31006-18.98657,32.77478-29.2301,41.81939-40.97699,75.90312-89.94781,99.62615-143.48102,5.93049-13.38726,11.29786-27.03149,15.90729-40.93102,5.69312-13.53906,10.63177-27.41168,15.46118-41.4295h0Z" style="fill: #d45b5b; mix-blend-mode: luminosity; opacity: .82;"/>
        <path d="m105.14655,365.67749c1.98932-14.68781,4.97644-29.27271,8.75934-43.68115,9.59015-28.13376,21.574-55.47615,36.20715-81.35975,29.14987-51.79747,68.20743-98.05941,114.39582-135.46913,12.19776-8.55345,24.80964-16.45445,37.84809-23.49321-11.48041,9.37347-22.7486,18.8606-33.44098,28.93164-11.36914,9.22968-22.31006,18.98657-32.77478,29.23004-41.8193,40.97705-75.90311,89.94782-99.62615,143.48102-5.93049,13.38726-11.29786,27.03155-15.90729,40.93108-5.69312,13.539-10.63177,27.41162-15.46118,41.42944h0Z" style="fill: #3fb045; opacity: .82;"/>
        <path d="m394.89539,141.33551c-11.17975,10.50116-22.62079,20.66473-34.05444,30.83789-22.83901,17.63253-85.03109,65.78861-108.67726,84.10055-23.84907,18.46486-85.56085,66.24711-108.6558,84.1282-12.72407,8.50654-25.42933,17.03736-38.36134,25.27534,11.21381-10.45715,22.65424-20.62152,34.07587-30.81018,22.81445-17.66425,85.00793-65.81859,108.65584-84.12825,23.85076-18.46267,85.56411-66.2429,108.63436-84.15587,12.71206-8.52203,25.41671-17.05365,38.38277-25.24768h0Z" style="fill: #2e8f31; mix-blend-mode: luminosity; opacity: .82;"/>
        <path d="m192.43567,83.36151c-9.38153,12.62085-17.67444,25.8537-24.76569,39.63184-8.03882,13.2041-14.78064,27.18628-20.29352,41.61658-22.41887,57.84404-20.78922,123.7276,2.80291,180.96379,5.09903,12.51441,11.17316,24.64548,18.28436,36.13622,8.86215,15.06675,18.0006,29.87581,29.22168,43.62854-17.66641-15.61588-33.59063-34.07821-43.99798-55.5131-29.34528-56.35188-37.60791-123.72244-20.24776-185.06067,10.55125-38.17318,29.3308-74.70001,58.996-101.4032h0Z" style="fill: #f09a9a; mix-blend-mode: luminosity; opacity: .82;"/>
        <path d="m398.26996,361.17804c-13.21143-7.79218-26.17194-15.92981-39.13959-24.05762-23.32214-16.98836-86.96582-63.20902-111.16622-80.78198-24.40397-17.72496-87.55419-63.58929-111.18667-80.75365-11.72902-9.83332-23.47603-19.64173-35.00551-29.74983,13.17877,7.83722,26.13989,15.974,39.11902,24.086,23.34575,16.95587,86.98809,63.17838,111.18678,80.75367,24.40238,17.7272,87.55109,63.59355,111.20725,80.72531,11.74055,9.81746,23.48816,19.62508,34.98493,29.7781h0Z" style="fill: #a3efff; mix-blend-mode: luminosity; opacity: .82;"/>
        <path d="m302.35693,81.67426c30.47564,25.78866,50.35952,61.70596,62.08053,99.54497,19.23436,60.77699,13.04382,128.36803-14.55812,185.59475-9.74446,21.74241-25.09496,40.68809-42.2733,56.83739,10.79442-14.09391,19.47254-29.17174,27.8681-44.50542,6.75579-11.70296,12.45453-24.01533,17.16784-36.67997,21.82355-57.93308,21.43042-123.83678-2.7539-180.96456-5.95259-14.25435-13.12037-28.02302-21.56074-40.97413-7.5108-13.55402-16.20593-26.52606-25.9704-38.85303h0Z" style="fill: #d9bc09; mix-blend-mode: luminosity; opacity: .82;"/>
        <path d="m398.26996,361.17804c.37053-12.75687.41233-25.56723-.34637-38.28845.5398-18.16564-.6862-36.39218-3.20103-54.38427-8.34445-57.12203-32.44846-111.81074-69.10104-156.42059-7.19986-10.53315-15.08321-20.56913-23.26457-30.41049,10.17528,7.89653,19.76539,16.67878,28.68198,25.97718,37.45324,45.58495,62.08548,101.47361,70.61034,159.84499,2.61065,18.38563,3.73659,37.00187,3.3421,55.56743-1.31499,12.86542-3.48234,25.60865-6.72142,38.11419h0Z" style="fill: #4aa8ba; opacity: .82;"/>
        <path d="m394.89539,141.33551c3.6213,12.40053,6.17884,25.07095,7.88813,37.89001.96407,18.54424.41025,37.1866-1.63492,55.64385-6.72972,58.60598-29.63443,115.22338-65.6713,161.93677-8.62709,9.56826-17.94253,18.63942-27.87103,26.84535,7.87507-10.08709,15.44709-20.36097,22.32046-31.11014,35.26569-45.71339,57.68029-101.11726,64.26711-158.46793,1.96142-18.06062,2.62766-36.31586,1.53051-54.45678.36784-12.73869-.06716-25.54092-.82896-38.28113h0Z" style="fill: #c2a700; mix-blend-mode: luminosity; opacity: .82;"/>
        <path d="m105.14655,365.67749c-3.62133-12.40054-6.17883-25.07094-7.88813-37.89001-.96407-18.54425-.41025-37.18658,1.63492-55.64385,6.72975-58.60606,29.63444-115.22332,65.6713-161.93677,8.62711-9.56821,17.94253-18.63943,27.87103-26.84535-7.87507,10.08713-15.44709,20.36101-22.32046,31.11014-35.2656,45.71337-57.68027,101.11724-64.26711,158.46793-1.96142,18.06066-2.62766,36.31594-1.53051,54.45684-.36784,12.7387.06716,25.54091.82896,38.28107h0Z" style="fill: #59de5f; opacity: .82;"/>
        <path d="m398.26996,361.17804c-5.25739-13.86298-10.61951-27.57745-16.72546-40.93536-5.03394-13.75153-10.8175-27.22461-17.15613-40.42358-25.35411-52.77886-60.92648-100.68246-103.98304-140.35558-10.77416-9.91749-22.00939-19.33399-33.65648-28.21034-10.9964-9.7381-22.55048-18.87494-34.31317-27.89166,13.24835,6.63531,26.09674,14.14545,38.55133,22.3205,47.31526,35.97476,87.77357,81.01552,118.49976,131.89428,15.42083,25.42225,28.23808,52.38383,38.68731,80.21009,4.22333,14.28552,7.65674,28.77185,10.09589,43.39166h0Z" style="fill: #7cd5e6; opacity: .82;"/>
        <path d="m218.08002,346.33997c-.79999,2.62-1.58002,5.17999-2.34003,7.67004-24.81-25.62-46.75-54.05005-65.17999-84.57001-15.42999-25.42999-28.23999-52.39001-38.69-80.21002-4.22998-14.28998-7.65997-28.77997-10.09998-43.40002,5.26001,13.87006,10.62,27.58002,16.72998,40.94,5.03003,13.75,10.81,27.22003,17.15002,40.42004,20.98999,43.69,48.97998,84.04999,82.42999,119.14996Z" style="fill: #ffe333; mix-blend-mode: luminosity; opacity: .82;"/>
        <path d="m307.60999,423.6499c-13.25-6.62994-26.09998-14.13989-38.56-22.31995-16.79999-12.77997-32.75-26.70996-47.69995-41.63995-1.89001-1.87-3.76001-3.77002-5.61005-5.67999.76001-2.49005,1.54004-5.05005,2.34003-7.67004,1.84003,1.94,3.70001,3.86005,5.58002,5.76001,5.19995,5.28003,10.52997,10.42999,15.97998,15.45001,10.77002,9.91998,22.01001,19.33002,33.65002,28.21002,11,9.73999,22.54999,18.87,34.31995,27.88989Z" style="fill: #ffe333; mix-blend-mode: luminosity; opacity: .82;"/>
        <g>
          <g>
            <circle cx="302.35693" cy="81.67423" r="9" style="fill: #4d4d4d;"/>
            <path d="m302.3598,75.513c3.34393,0,6.10626,2.7215,6.15759,6.06665.05212,3.39691-2.66901,6.20294-6.06555,6.25507l-.09766.00073c-3.34406,0-6.10638-2.7215-6.15771-6.06665-.05212-3.39691,2.66901-6.20288,6.06561-6.25507l.09772-.00073m-.00006-3c-.04773,0-.09558.00037-.14343.0011-5.05896.0777-9.09711,4.24176-9.01947,9.30072.0769,5.01117,4.16321,9.02063,9.15735,9.02063.04767,0,.09552-.00037.14337-.0011,5.05896-.07764,9.09711-4.24176,9.01947-9.30072-.0769-5.01111-4.16321-9.02069-9.15729-9.02063h0Z" style="fill: #ffffff;"/>
          </g>
          <g>
            <circle cx="394.89537" cy="141.33553" r="9" style="fill: #1a1a1a;"/>
            <path d="m394.89825,135.17432c3.34393,0,6.10626,2.7215,6.15759,6.06665.05212,3.39691-2.66907,6.20288-6.06567,6.25507l-.09766.00073c-3.34393,0-6.10626-2.7215-6.15759-6.06671-.02527-1.64551.5918-3.20233,1.73749-4.38379,1.14569-1.1814,2.68286-1.84595,4.32812-1.87122l.09772-.00073m-.00006-3c-.04773,0-.09558.00037-.14343.0011-5.05896.07764-9.09717,4.24176-9.01947,9.30072.0769,5.01111,4.16321,9.02063,9.15729,9.02063.04767,0,.09552-.00037.14337-.0011,5.05902-.0777,9.09717-4.24176,9.01953-9.30072-.0769-5.01117-4.16327-9.02069-9.15729-9.02063h0Z" style="fill: #ffffff;"/>
          </g>
          <g>
            <circle cx="101.772" cy="145.83496" r="9" style="fill: #b3b3b3;"/>
            <path d="m101.7749,139.67377c3.34393,0,6.1062,2.7215,6.15759,6.06659.05212,3.39691-2.66907,6.20294-6.06561,6.25507l-.09778.00073c-3.34393,0-6.1062-2.7215-6.15759-6.06659-.05212-3.39691,2.66907-6.20294,6.06567-6.25507l.09772-.00073m-.00012-3c-.04767,0-.09552.00037-.14337.0011-5.05902.07764-9.09717,4.2417-9.01953,9.30072.07697,5.01111,4.16315,9.02057,9.15723,9.02057.04767,0,.09564-.00037.14349-.0011,5.05902-.07764,9.09717-4.2417,9.01953-9.30072-.07697-5.01111-4.16327-9.02063-9.15735-9.02057h0Z" style="fill: #ffffff;"/>
          </g>
          <g>
            <circle cx="192.43567" cy="83.36152" r="9" style="fill: gray;"/>
            <path d="m192.43854,77.20032c3.34393,0,6.10626,2.72144,6.15759,6.06659.05212,3.39691-2.66901,6.20294-6.06622,6.25507l-.09711.00073c-3.34399,0-6.10626-2.7215-6.15759-6.06659-.05212-3.39691,2.66901-6.20294,6.06561-6.25507l.09772-.00073m-.00006-3c-.04773,0-.09558.00037-.14343.0011-5.05896.07764-9.09711,4.2417-9.01947,9.30072.0769,5.01111,4.16309,9.02057,9.15723,9.02057.04767,0,.09564-.00037.14349-.0011,5.05896-.07764,9.09711-4.2417,9.01947-9.30072-.0769-5.01111-4.16321-9.02063-9.15729-9.02057h0Z" style="fill: #ffffff;"/>
          </g>
        </g>
        <g>
          <g>
            <circle cx="307.60627" cy="423.65151" r="9" style="fill: #e3c400;"/>
            <path d="m307.60901,417.4903c3.34406,0,6.10638,2.72144,6.15771,6.06659.02527,1.64551-.5918,3.20239-1.73749,4.38391-1.14569,1.1814-2.68292,1.84595-4.32843,1.87122l-.09735.00073c-3.34399,0-6.10632-2.72144-6.15765-6.06665-.05212-3.39691,2.66901-6.20294,6.06592-6.25507l.09729-.00073m0-3c-.04797,0-.09521.00037-.14337.0011-5.05896.07764-9.09711,4.24176-9.01947,9.30072.0769,5.01074,4.16364,9.02063,9.15735,9.02063.04797,0,.09521-.00037.14337-.0011,5.05896-.07764,9.09717-4.24182,9.01947-9.30078-.0769-5.0108-4.16364-9.02057-9.15735-9.02057h0Z" style="fill: #ffffff;"/>
          </g>
          <g>
            <circle cx="398.26995" cy="361.17806" r="9" style="fill: #0098b5;"/>
            <path d="m398.27277,355.01685c3.34399,0,6.10632,2.7215,6.15765,6.06665.05212,3.39691-2.66907,6.20288-6.06598,6.25507l-.09729.00073c-3.34399,0-6.10632-2.7215-6.15765-6.06671-.02527-1.64551.5918-3.20233,1.73749-4.38373,1.14569-1.18146,2.68292-1.84601,4.32843-1.87128l.09735-.00073m0-3c-.04803,0-.09528.00037-.14343.0011-5.05896.0777-9.09717,4.24176-9.01947,9.30072.0769,5.01086,4.16364,9.02063,9.15729,9.02063.04797,0,.09521-.00037.14337-.0011,5.05902-.0777,9.09717-4.24176,9.01953-9.30072-.0769-5.01086-4.16364-9.02063-9.15729-9.02063h0Z" style="fill: #ffffff;"/>
          </g>
          <g>
            <circle cx="105.14657" cy="365.6775" r="9" style="fill: #55cf5b;"/>
            <path d="m105.14941,359.5163c3.34393,0,6.10626,2.7215,6.15765,6.06659.05212,3.39691-2.66907,6.20294-6.06598,6.25507l-.09741.00073c-3.34393,0-6.1062-2.7215-6.15759-6.06659-.05212-3.39691,2.66907-6.20294,6.06598-6.25507l.09735-.00073m0-3c-.04803,0-.09528.00037-.14343.0011-5.05902.07764-9.09717,4.2417-9.01953,9.30072.07697,5.0108,4.16357,9.02057,9.15723,9.02057.04797,0,.09534-.00037.14349-.0011,5.05902-.07764,9.09717-4.2417,9.01953-9.30072-.07697-5.0108-4.1637-9.02057-9.15729-9.02057h0Z" style="fill: #ffffff;"/>
          </g>
          <g>
            <circle cx="197.68501" cy="425.33879" r="9" style="fill: #eb7171;"/>
            <path d="m197.68787,419.17761c3.34399,0,6.10626,2.72144,6.15759,6.06665.02527,1.64551-.5918,3.20239-1.73749,4.38379s-2.68286,1.84595-4.32843,1.87122l-.09735.00073c-3.34399,0-6.10632-2.72144-6.15765-6.06665-.02521-1.64551.5918-3.20239,1.73749-4.38379s2.68286-1.84595,4.32843-1.87122l.09741-.00073m0-3c-.04797,0-.09534.00037-.14349.0011-5.05896.07764-9.09711,4.2417-9.01947,9.30066.0769,5.01074,4.16364,9.02063,9.15735,9.02063.04797,0,.09521-.00037.14337-.0011,5.05896-.07764,9.09717-4.2417,9.01947-9.30066-.0769-5.01086-4.16351-9.02063-9.15723-9.02063h0Z" style="fill: #ffffff;"/>
          </g>
        </g>
      </g>
    </g>
  </g>
</svg>