<?xml version="1.0" encoding="UTF-8"?>
<svg id="Layer_1" data-name="Layer 1" xmlns="http://www.w3.org/2000/svg" viewBox="0 0 500 500">
  <g style="opacity: .82;">
    <path d="m394.89539,141.33553c5.12128,8.0714,9.77783,16.41942,13.99365,25.06705,3.18762,9.01421,6.07538,18.15581,8.3797,27.46028,11.84249,46.5275,8.50734,96.19033-5.75951,141.80562-3.87068,8.81487-8.21833,17.37978-13.23927,25.5096,2.44122-9.24121,4.79279-18.38367,6.5639-27.61682,13.87802-44.39878,17.17238-92.71062,5.64312-138.00368-2.27075-9.04117-4.98925-17.98197-8.2348-26.74584-2.17603-9.15053-4.89386-18.22614-7.3468-27.47621h0Z" style="fill: #248da3;"/>
  </g>
  <g style="opacity: .82;">
    <path d="m101.77197,145.83496c-2.52185,9.23248-4.94458,18.35501-6.79559,27.56723-2.92828,8.8609-5.2627,17.91359-7.16187,27.04817-9.52415,45.70045-6.08782,93.95583,9.66077,137.89332,2.11278,9.15928,4.82073,18.20561,7.67126,27.33381-5.37946-7.90552-10.06378-16.30344-14.26379-24.9801-16.17851-45.13611-19.70756-94.71383-9.92364-141.6623,1.92077-9.39301,4.41607-18.65952,7.28918-27.80497,3.91406-8.80815,8.33667-17.35143,13.52368-25.39516h0Z" style="fill: #82ff89;"/>
  </g>
  <g style="opacity: .82;">
    <path d="m192.43567,83.36153c6.18066,13.71104,11.95697,27.55894,17.74475,41.40297,9.03023,26.80681,33.75349,99.84808,43.15584,127.61998,9.47905,28.00888,34.00951,100.48546,43.18894,127.6087,3.79127,14.51979,7.61152,29.02971,11.08106,43.65834-6.12799-13.72888-11.90527-27.57648-17.71161-41.41422-9.06825-26.79394-33.78935-99.83594-43.18897-127.60875-9.47643-28.00978-34.00446-100.48718-43.22211-127.5975-3.80981-14.51349-7.63104-29.02308-11.04791-43.66953h0Z" style="fill: #f2d418;"/>
  </g>
  <g style="opacity: .82;">
    <path d="m101.77197,145.83496c-.37046,12.75695-.41231,25.56724.34637,38.28851-.53983,18.16561.68625,36.39215,3.20103,54.38421,8.3445,57.12198,32.4485,111.81079,69.10104,156.42059,7.19995,10.53323,15.08323,20.56909,23.26457,30.41055-10.17518-7.89658-19.7654-16.67882-28.68198-25.97721-37.45323-45.58491-62.08546-101.47366-70.61034-159.84499-2.6106-18.3856-3.73662-37.00191-3.3421-55.5674,1.31502-12.86544,3.48235-25.60866,6.72142-38.11425h0Z" style="fill: #ffb5b5;"/>
  </g>
  <g style="opacity: .82;">
    <path d="m197.685,425.33881c2.96576-14.74445,6.33984-29.36447,9.70239-43.98804,8.28013-27.04791,30.74533-100.81499,39.28546-128.86404,8.61585-28.28635,30.90865-101.48217,39.25195-128.87418,5.37885-14.00945,10.7284-28.02783,16.43213-41.93831-3.01892,14.72823-6.39203,29.34856-9.73584,43.97783-8.24178,27.0596-30.7091,100.82602-39.25196,128.87423-8.61852,28.28554-30.91383,101.48059-39.21848,128.88437-5.36019,14.01518-10.7087,28.03386-16.46565,41.92814h0Z" style="fill: #e86f6f;"/>
  </g>
  <g style="opacity: .82;">
    <path d="m394.89539,141.33553c-1.98926,14.68779-4.97644,29.27272-8.75934,43.68114-9.59019,28.13376-21.57394,55.47619-36.20715,81.35975-29.14985,51.79755-68.2074,98.05945-114.39582,135.46916-12.19776,8.55345-24.80964,16.45442-37.84809,23.49324,11.48041-9.3735,22.7486-18.86063,33.44098-28.93167,11.36914-9.22964,22.31006-18.98654,32.77478-29.23007,41.81937-40.977,75.9031-89.94779,99.62615-143.48099,5.93049-13.38729,11.29786-27.03153,15.90729-40.93107,5.69312-13.53903,10.63177-27.41165,15.46118-41.42947h0Z" style="fill: #d45b5b;"/>
  </g>
  <g style="opacity: .82;">
    <path d="m105.14655,365.67749c1.98932-14.68777,4.97644-29.27271,8.75934-43.68112,9.59016-28.13375,21.574-55.47621,36.20715-81.35975,29.14986-51.79752,68.20742-98.05944,114.39582-135.46916,12.19776-8.55347,24.80964-16.45442,37.84809-23.49323-11.48041,9.3735-22.7486,18.86063-33.44098,28.93164-11.36914,9.22966-22.31006,18.98656-32.77478,29.23007-41.81933,40.97702-75.9031,89.9478-99.62615,143.48101-5.93049,13.38729-11.29786,27.03155-15.90729,40.93105-5.69312,13.53903-10.63177,27.41168-15.46118,41.42947h0Z" style="fill: #3fb045;"/>
  </g>
  <g style="opacity: .82;">
    <path d="m394.89539,141.33553c-11.17975,10.50114-22.62079,20.66472-34.05444,30.83786-22.83902,17.63252-85.03109,65.78864-108.67726,84.10059-23.84908,18.46485-85.56087,66.24708-108.6558,84.1282-12.72407,8.50654-25.42933,17.03733-38.36134,25.27531,11.21381-10.45715,22.65424-20.62155,34.07587-30.81018,22.81444-17.66428,85.00791-65.81859,108.65584-84.12825,23.85078-18.46267,85.56413-66.24289,108.63436-84.1559,12.71206-8.522,25.41671-17.0536,38.38277-25.24763h0Z" style="fill: #2e8f31;"/>
  </g>
  <g style="opacity: .82;">
    <path d="m192.43567,83.36153c-9.38153,12.62085-17.67444,25.85368-24.76569,39.63184-8.03882,13.20409-14.78064,27.18628-20.29352,41.61659-22.4189,57.84403-20.7892,123.72761,2.80291,180.96376,5.09905,12.51438,11.17312,24.64547,18.28436,36.13619,8.86216,15.06681,18.0006,29.87579,29.22168,43.62863-17.6664-15.61592-33.59061-34.07824-43.99798-55.51319-29.34529-56.35189-37.60791-123.7224-20.24776-185.06062,10.55122-38.17313,29.33079-74.70007,58.996-101.4032h0Z" style="fill: #f09a9a;"/>
  </g>
  <g style="opacity: .82;">
    <path d="m398.26996,361.17807c-13.21143-7.79221-26.17194-15.92984-39.13959-24.05768-23.32216-16.98832-86.96583-63.20902-111.16622-80.78198-24.40399-17.72496-87.55421-63.58925-111.18667-80.75365-11.72902-9.83328-23.47603-19.64173-35.00551-29.7498,13.17877,7.8372,26.13989,15.97401,39.11902,24.08598,23.34576,16.95585,86.9881,63.17839,111.18678,80.75369,24.40238,17.7272,87.55109,63.59355,111.20725,80.72531,11.74055,9.81743,23.48816,19.62508,34.98493,29.77813h0Z" style="fill: #a3efff;"/>
  </g>
  <g style="opacity: .82;">
    <path d="m302.35693,81.67424c30.47562,25.78866,50.35951,61.70595,62.08053,99.54497,19.23437,60.77701,13.04379,128.36807-14.55812,185.5948-9.74446,21.74234-25.09496,40.6881-42.2733,56.83739,10.79443-14.0939,19.47249-29.17176,27.8681-44.50542,6.75576-11.70298,12.45455-24.01534,17.16784-36.68,21.82354-57.93309,21.43042-123.83678-2.7539-180.96456-5.95259-14.25432-13.12037-28.02301-21.56074-40.97415-7.5108-13.554-16.20593-26.52608-25.9704-38.85303h0Z" style="fill: #d9bc09;"/>
  </g>
  <g style="opacity: .82;">
    <path d="m398.26996,361.17807c.37053-12.75696.41233-25.56723-.34637-38.28851.5398-18.16562-.68621-36.39218-3.20103-54.38424-8.34445-57.122-32.44846-111.81077-69.10104-156.42056-7.19987-10.53323-15.08322-20.5691-23.26457-30.41054,10.17524,7.89655,19.76542,16.67879,28.68198,25.97721,37.45327,45.58491,62.08548,101.47362,70.61034,159.84498,2.61065,18.3856,3.73659,37.00191,3.3421,55.5674-1.31499,12.86546-3.48234,25.60865-6.72142,38.11425h0Z" style="fill: #4aa8ba;"/>
  </g>
  <g style="opacity: .82;">
    <path d="m394.89539,141.33553c3.62132,12.40053,6.17884,25.07097,7.88813,37.89.96407,18.54424.41025,37.18658-1.63492,55.64385-6.72973,58.60599-29.63442,115.22338-65.6713,161.93677-8.62707,9.56826-17.94255,18.63942-27.87103,26.84538,7.87507-10.0871,15.4471-20.36103,22.32046-31.11017,35.26569-45.71337,57.68028-101.11723,64.26711-158.46793,1.96142-18.06063,2.62766-36.31589,1.53051-54.4568.36784-12.73869-.06716-25.54092-.82896-38.2811h0Z" style="fill: #c2a700;"/>
  </g>
  <g style="opacity: .82;">
    <path d="m105.14655,365.67749c-3.62133-12.40052-6.17884-25.07097-7.88813-37.88998-.96407-18.54422-.41025-37.18659,1.63492-55.64385,6.72973-58.606,29.63441-115.22337,65.6713-161.93677,8.62708-9.56825,17.94253-18.63944,27.87103-26.84536-7.87507,10.0871-15.4471,20.361-22.32046,31.11014-35.26564,45.71339-57.68029,101.11725-64.26711,158.46794-1.96142,18.06062-2.62766,36.31588-1.53051,54.45678-.36784,12.7387.06716,25.54092.82896,38.2811h0Z" style="fill: #59de5f;"/>
  </g>
  <g style="opacity: .82;">
    <path d="m398.26996,361.17807c-5.25739-13.86298-10.61951-27.57748-16.72546-40.93539-5.03394-13.75153-10.8175-27.22461-17.15613-40.42355-25.35412-52.77892-60.92644-100.68247-103.98304-140.35561-10.77416-9.9175-22.00939-19.33399-33.65648-28.21037-10.9964-9.7381-22.55048-18.87489-34.31317-27.89162,13.24835,6.6353,26.09674,14.14545,38.55133,22.32045,47.31523,35.97483,87.77355,81.01551,118.49976,131.89431,15.42084,25.42222,28.23808,52.38383,38.68731,80.21006,4.22333,14.28552,7.65674,28.77191,10.09589,43.39173h0Z" style="fill: #7cd5e6;"/>
  </g>
  <g style="opacity: .82;">
    <path d="m101.77197,145.83496c5.25739,13.86298,10.61951,27.5775,16.72546,40.93541,5.03394,13.75151,10.8175,27.22459,17.15613,40.42354,25.3541,52.77892,60.92647,100.68246,103.98304,140.35561,10.77416,9.91749,22.00939,19.33399,33.65648,28.21037,10.9964,9.7381,22.55048,18.87491,34.31317,27.89163-13.24835-6.63531-26.09674-14.14545-38.55133-22.32047-47.31516-35.97485-87.77359-81.01547-118.4997-131.89431-15.42088-25.4222-28.23813-52.38382-38.68738-80.21008-4.22333-14.28552-7.65674-28.7719-10.09589-43.39171h0Z" style="fill: #ffe333;"/>
  </g>
  <g>
    <g>
      <path d="m302.354,89.33545c-4.1582,0-7.59375-3.38379-7.65723-7.54346-.06494-4.22412,3.31885-7.71338,7.54248-7.77783l.12061-.00098c4.1582,0,7.59375,3.38379,7.65723,7.54346.06494,4.22412-3.31885,7.71338-7.54248,7.77783l-.12061.00098Z" style="fill: #4d4d4d;"/>
      <path d="m302.35986,75.51302c3.34393,0,6.1062,2.72149,6.15753,6.06664.05212,3.39688-2.66901,6.20288-6.06555,6.25502l-.09772.00075c-3.34399,0-6.10632-2.72148-6.15765-6.06664-.05212-3.39688,2.66901-6.20288,6.06561-6.25503l.09778-.00075m-.00012-3c-.04767,0-.09558.00037-.14343.0011-5.05896.07766-9.09711,4.24174-9.01947,9.30071.0769,5.01112,4.16315,9.0206,9.15729,9.0206.04773,0,.09558-.00037.14343-.0011,5.05896-.07765,9.09711-4.24171,9.01947-9.3007-.0769-5.01112-4.16315-9.02066-9.15729-9.02061h0Z" style="fill: #fff;"/>
    </g>
    <g>
      <path d="m394.89258,148.99658c-4.1582,0-7.59375-3.38379-7.65723-7.54346-.06494-4.22412,3.31885-7.71338,7.54248-7.77783l.12061-.00098c4.1582,0,7.59375,3.38379,7.65723,7.54346.06494,4.22412-3.31885,7.71338-7.54248,7.77783l-.12061.00098Z" style="fill: #1a1a1a;"/>
      <path d="m394.89832,135.17433c3.34393,0,6.1062,2.72148,6.15753,6.06664.05212,3.39688-2.66907,6.2029-6.06567,6.25502l-.09766.00075c-3.34393,0-6.10626-2.72148-6.15759-6.06667-.02527-1.64551.5918-3.20235,1.73749-4.38377s2.68286-1.84596,4.32812-1.87122l.09778-.00075m-.00012-3.00002c-.04767.00002-.09558.00038-.14343.00111-5.05896.07765-9.09717,4.24171-9.01947,9.3007.0769,5.01112,4.16315,9.0206,9.15723,9.0206.04767,0,.09558-.00037.14343-.0011,5.05902-.07765,9.09717-4.24173,9.01953-9.3007-.0769-5.01112-4.16321-9.02068-9.15729-9.02061h0Z" style="fill: #fff;"/>
    </g>
    <g>
      <path d="m101.76904,153.49609c-4.1582,0-7.59375-3.38379-7.65723-7.54346-.06494-4.22412,3.31885-7.71338,7.54248-7.77783l.12061-.00098c4.1582,0,7.59375,3.38379,7.65723,7.54346.06494,4.22412-3.31885,7.71338-7.54248,7.77783l-.12061.00098Z" style="fill: #b3b3b3;"/>
      <path d="m101.77496,139.67377c3.34387,0,6.10614,2.72148,6.15753,6.06662.05212,3.3969-2.66907,6.20291-6.06561,6.25504l-.09772.00075c-3.34393,0-6.10626-2.7215-6.15765-6.06664-.05212-3.39688,2.66907-6.20288,6.06567-6.25502l.09778-.00075m-.00012-3.00002c-.04767.00002-.09558.00038-.14343.00111-5.05902.07765-9.09717,4.24171-9.01953,9.3007.07697,5.01112,4.16327,9.0206,9.15729,9.0206.04773,0,.09558-.00037.14343-.0011,5.05902-.07765,9.09717-4.24173,9.01953-9.30072-.07697-5.01111-4.16321-9.02066-9.15729-9.0206h0Z" style="fill: #fff;"/>
    </g>
    <g>
      <path d="m192.43262,91.02246c-4.1582,0-7.59375-3.38379-7.65723-7.54346-.06494-4.22363,3.31885-7.71289,7.54248-7.77783l.12061-.00098c4.1582,0,7.59375,3.38379,7.65723,7.54346.06494,4.22412-3.31885,7.71338-7.54248,7.77783l-.12061.00098Z" style="fill: gray;"/>
      <path d="m192.4386,77.20032c3.34393,0,6.1062,2.72148,6.15753,6.06664.05212,3.39688-2.66901,6.20288-6.06555,6.25502l-.09772.00075c-3.34399,0-6.10632-2.72148-6.15765-6.06662-.05212-3.3969,2.66901-6.2029,6.06561-6.25504l.09778-.00075m-.00012-3c-.04767,0-.09558.00037-.14343.0011-5.05896.07765-9.09711,4.24173-9.01947,9.30072.0769,5.01111,4.16315,9.0206,9.15729,9.0206.04767,0,.09558-.00038.14343-.00111,5.05896-.07765,9.09711-4.24171,9.01947-9.3007-.0769-5.01112-4.16315-9.02065-9.15729-9.0206h0Z" style="fill: #fff;"/>
    </g>
  </g>
  <g>
    <g>
      <path d="m307.604,431.3125c-4.15869-.00049-7.59424-3.38428-7.65771-7.54346-.06494-4.22412,3.31885-7.71338,7.54248-7.77783l.12061-.00098c4.1582,0,7.59375,3.38379,7.65723,7.54346.06494,4.22412-3.31885,7.71338-7.54248,7.77783l-.12012.00098Z" style="fill: #e3c400;"/>
      <path d="m307.60901,417.4903c3.34406,0,6.10638,2.72147,6.15771,6.06668.02527,1.64551-.5918,3.20236-1.73749,4.38376-1.14569,1.18143-2.68292,1.84598-4.32843,1.87125l-.09735.00073c-3.34399,0-6.10632-2.7215-6.15765-6.06662-.05212-3.39691,2.66901-6.20291,6.06592-6.25507l.09729-.00073m0-3c-.04797,0-.09521.00037-.14337.0011-5.05896.07767-9.09711,4.24173-9.01947,9.30072.0769,5.01083,4.16364,9.0206,9.15729,9.0206.04803,0,.09528-.00037.14343-.0011,5.05896-.07767,9.09717-4.24173,9.01947-9.30072-.0769-5.0108-4.16364-9.0206-9.15735-9.0206h0Z" style="fill: #fff;"/>
    </g>
    <g>
      <path d="m398.26758,368.83936c-4.15869-.00049-7.59424-3.38428-7.65771-7.54346-.06494-4.22412,3.31885-7.71338,7.54248-7.77783l.12061-.00098c4.1582,0,7.59375,3.38379,7.65723,7.54346.06494,4.22412-3.31885,7.71338-7.54248,7.77783l-.12012.00098Z" style="fill: #0098b5;"/>
      <path d="m398.27277,355.01685c3.34399,0,6.10632,2.72147,6.15765,6.06662.05212,3.39691-2.66907,6.20291-6.06598,6.25507l-.09735.00073c-3.34399,0-6.10626-2.72147-6.15759-6.06668-.02527-1.64551.5918-3.20236,1.73749-4.38376,1.14569-1.18143,2.68292-1.84598,4.32843-1.87125l.09735-.00073m0-3c-.04803,0-.09528.00037-.14343.0011-5.05896.07767-9.09717,4.24173-9.01947,9.30072.0769,5.0108,4.16357,9.0206,9.15723,9.0206.04797,0,.09528-.00037.14343-.0011,5.05902-.07764,9.09717-4.24173,9.01953-9.30072-.0769-5.01083-4.16364-9.0206-9.15729-9.0206h0Z" style="fill: #fff;"/>
    </g>
    <g>
      <path d="m105.14404,373.33838c-4.15869-.00049-7.59424-3.38428-7.65771-7.54346-.06494-4.22363,3.31885-7.71289,7.54248-7.77734l.12061-.00098c4.1582,0,7.59375,3.38379,7.65723,7.54346.06494,4.22363-3.31885,7.71289-7.54248,7.77734l-.12012.00098Z" style="fill: #55cf5b;"/>
      <path d="m105.14941,359.5163c3.34399,0,6.10626,2.7215,6.15765,6.06662.05212,3.39691-2.66907,6.20291-6.06598,6.25507l-.09735.00073c-3.34393,0-6.10626-2.7215-6.15765-6.06662-.05212-3.39691,2.66907-6.20291,6.06598-6.25507l.09735-.00073m0-3c-.04797,0-.09528.00037-.14343.0011-5.05902.07764-9.09717,4.24173-9.01953,9.30072.07697,5.01077,4.1637,9.0206,9.15735,9.0206.04797,0,.09521-.00037.14337-.0011,5.05902-.07767,9.09717-4.24173,9.01953-9.30072-.07697-5.0108-4.16364-9.0206-9.15729-9.0206h0Z" style="fill: #fff;"/>
    </g>
    <g>
      <path d="m197.68262,433c-4.15869-.00049-7.59424-3.38428-7.65771-7.54346-.06494-4.22412,3.31885-7.71338,7.54248-7.77783l.12061-.00098c4.1582,0,7.59375,3.38379,7.65723,7.54346.06494,4.22412-3.31885,7.71338-7.54248,7.77783l-.12012.00098Z" style="fill: #eb7171;"/>
      <path d="m197.68774,419.17758c3.34406,0,6.10638,2.72147,6.15771,6.06665.02527,1.64554-.5918,3.20236-1.73749,4.38379s-2.68292,1.84598-4.32843,1.87125l-.09735.00073c-3.34399,0-6.10632-2.7215-6.15765-6.06662-.05212-3.39691,2.66901-6.20291,6.06592-6.25507l.09729-.00073m0-3c-.04797,0-.09521.00037-.14337.0011-5.05896.07767-9.09711,4.24173-9.01947,9.30072.0769,5.0108,4.16357,9.0206,9.15729,9.0206.04797,0,.09528-.00037.14343-.0011,5.05896-.07767,9.09717-4.24173,9.01947-9.30072-.0769-5.01083-4.16364-9.0206-9.15735-9.0206h0Z" style="fill: #fff;"/>
    </g>
  </g>
</svg>